<?xml version="1.0" standalone="no"?>
<!DOCTYPE svg PUBLIC "-//W3C//DTD SVG 1.1//EN" "http://www.w3.org/Graphics/SVG/1.1/DTD/svg11.dtd" >
<!--
2013-9-30: Created.
-->
<svg>
<metadata>
Created by iconfont
</metadata>
<defs>

<font id="iconfont" horiz-adv-x="1024" >
  <font-face
    font-family="iconfont"
    font-weight="500"
    font-stretch="normal"
    units-per-em="1024"
    ascent="896"
    descent="-128"
  />
    <missing-glyph />
    
    <glyph glyph-name="membership-center_services-quarantine-ticket" unicode="&#58973;" d="M14.222222 896m113.777778 0l768 0q113.777778 0 113.777778-113.777778l0-796.444444q0-113.777778-113.777778-113.777778l-768 0q-113.777778 0-113.777778 113.777778l0 796.444444q0 113.777778 113.777778 113.777778ZM810.666667 611.555556a56.888889 56.888889 0 0 0 56.888889-56.888889v-91.022223c-33.137778-13.653333-56.888889-50.517333-56.888889-93.866666 0-43.349333 23.751111-80.213333 56.888889-93.866667V184.888889a56.888889 56.888889 0 0 0-56.888889-56.888889H213.333333a56.888889 56.888889 0 0 0-56.888889 56.888889v85.333333c47.132444 0 85.333333 44.572444 85.333334 99.555556S203.576889 469.333333 156.444444 469.333333v85.333334a56.888889 56.888889 0 0 0 56.888889 56.888889h597.333334zM672.597333 391.936l1.564445 15.957333 2.503111-11.264h43.804444l-24.092444 96.056889h-97.934222l10.012444-11.576889-44.430222-84.792889h42.865778l5.319111 10.325334-2.190222-14.705778h62.577777z m-157.383111-124.529778l22.215111 157.383111h25.969778l4.380445 29.724445h-26.282667l5.319111 37.546666h-50.688l7.196444-9.073777-4.067555-28.472889h-26.595556l-4.380444-29.724445h26.908444l-22.215111-157.383111h42.24z m156.444445 153.002667h-52.878223l22.840889 45.368889h20.963556l9.073778-45.368889z m-206.193778-141.738667l24.405333 135.793778h-19.712l-24.405333-135.793778h19.712z m83.228444 17.834667l11.264 117.959111h-19.712l-11.576889-117.959111h20.024889z m155.505778-24.092445L708.266667 301.511111h-21.902223l27.847112 81.664h-35.982223l-27.534222-81.664H551.822222l-4.067555-29.098667h156.444444z m-99.811555 36.295112l0.625777 74.467555h-35.982222l-0.625778-74.467555h35.982223z m43.804444 0.312888l3.754667 74.154667h-35.982223l-3.441777-74.154667h35.669333z"  horiz-adv-x="1024" />

    
    <glyph glyph-name="bidding_wechat-logo" unicode="&#58972;" d="M989.605647 272.685176a43.791059 43.791059 0 0 0-43.068235 44.574118c0 24.576 19.275294 44.453647 43.068235 44.453647 23.732706 0 43.008-19.877647 43.008-44.513882 0-24.576-19.275294-44.513882-43.008-44.513883m-258.168471 44.574118a43.791059 43.791059 0 0 0-43.008 44.453647c0 24.636235 19.275294 44.574118 43.008 44.574118 23.732706 0 43.008-19.937882 43.008-44.574118 0-24.576-19.275294-44.513882-43.008-44.513882M1204.705882 227.448471c0 172.092235-172.152471 312.380235-365.447529 312.380235-204.8 0-365.989647-140.288-365.989647-312.380235 0-172.393412 161.249882-312.380235 365.989647-312.380236 42.827294 0 86.016 10.842353 129.084235 21.624471L1086.403765-128l-32.406589 107.580235C1140.374588 44.393412 1204.705882 130.349176 1204.705882 227.448471M279.672471 584.342588c-35.659294 0-64.572235 29.876706-64.572236 66.800941 0 36.864 28.912941 66.740706 64.572236 66.740706 35.659294 0 64.512-29.876706 64.512-66.740706 0-36.924235-28.912941-66.800941-64.512-66.800941m301.17647 133.541647c35.659294 0 64.512-29.876706 64.512-66.740706 0-36.924235-28.912941-66.800941-64.512-66.800941-35.659294 0-64.572235 29.876706-64.572235 66.800941 0 36.864 28.912941 66.740706 64.572235 66.740706M819.2 590.426353c13.854118 0 27.648-1.024 41.261176-2.590118C823.416471 764.687059 638.915765 896 428.272941 896 192.813176 896 0 731.557647 0 522.842353c0-120.530824 64.150588-219.437176 171.369412-296.237177l-42.767059-131.975529 149.684706 76.860235c53.609412-10.842353 96.557176-21.985882 150.046117-21.985882 13.432471 0 26.744471 0.662588 39.996236 1.746824a334.185412 334.185412 0 0 0-13.251765 91.919058c0 191.728941 160.707765 347.256471 364.182588 347.256471"  horiz-adv-x="1204" />

    
    <glyph glyph-name="chick-bidding_minus" unicode="&#58969;" d="M0 486.4h1175.296v-180.224H0z"  horiz-adv-x="1280" />

    
    <glyph glyph-name="chick-bidding_plus" unicode="&#58970;" d="M389.12 896h163.84v-387.2768h387.2768v-163.84H552.96v-389.12H389.12v389.12H0v163.84h389.12z"  horiz-adv-x="1024" />

    
    <glyph glyph-name="chick-bidding_triangle" unicode="&#58971;" d="M0-128l965.046857 1024L1901.714286-128z"  horiz-adv-x="1901" />

    
    <glyph glyph-name="common_plus" unicode="&#58967;" d="M989.590825 334.753396h-432.000885v-431.673612h-115.200236V334.753396H10.361546v115.118417h432.028158V881.518152h115.200236v-431.646339h432.000885v-115.118417z"  horiz-adv-x="1035" />

    
    <glyph glyph-name="common_minus" unicode="&#58968;" d="M41.131314-121.173333V892.598082h12246.562818v-1013.771415H41.131314"  horiz-adv-x="12370" />

    
    <glyph glyph-name="news_head" unicode="&#58966;" d="M1011.851636 413.021091C996.887273 690.804364 759.575273 903.842909 481.745455 888.901818 203.938909 873.960727-9.122909 636.648727 5.818182 358.865455c14.941091-277.783273 252.276364-490.821818 530.082909-475.880728 277.806545 14.941091 490.891636 252.276364 475.927273 530.036364M836.096 0.651636s-19.572364 51.432727-84.829091 83.618909c-65.233455 32.139636-169.634909 64.302545-169.634909 90.042182v19.293091s65.256727 32.162909 78.289455 102.912c19.572364 6.423273 32.628364 38.586182 32.628363 83.595637 0 38.586182-6.516364 38.586182-13.032727 32.162909-6.539636-6.423273 6.516364 77.172364 0 115.781818-6.539636 38.586182-58.740364 115.758545-163.141818 115.758545-3.351273 0-6.516364-0.023273-9.611637-0.069818a756.759273 756.759273 0 0 1-9.611636 0.069818c-34.536727 0-63.325091-8.471273-86.667636-21.178182-20.084364 0.395636-49.501091 5.003636-54.248728-4.538181-4.654545-9.355636-2.56-32.256-1.047272-44.078546-12.032-16.756364-19.013818-33.419636-21.154909-45.963636-6.516364-38.609455 6.516364-122.205091 0-115.781818-6.516364 6.423273-13.032727 6.423273-13.032728-32.162909 0-45.009455 13.032727-77.172364 32.628364-83.595637 13.032727-70.749091 78.289455-102.912 78.289454-102.912v-19.316363c0-25.716364-104.401455-57.879273-169.658181-90.01891C197.026909 52.107636 177.454545 0.651636 177.454545 0.651636v-2.885818c95.697455-84.177455 222.836364-132.421818 359.866182-125.021091a501.76 501.76 0 0 1 298.775273 119.063273v8.843636z"  horiz-adv-x="1024" />

    
    <glyph glyph-name="group-buying_play" unicode="&#58965;" d="M512 384m-493.714286 0a493.714286 493.714286 0 1 1 987.428572 0 493.714286 493.714286 0 1 1-987.428572 0ZM690.944 352.987429L430.811429 190.390857a36.571429 36.571429 0 0 0-55.954286 31.012572V546.596571a36.571429 36.571429 0 0 0 55.954286 31.012572l260.132571-162.596572a36.571429 36.571429 0 0 0 0-62.025142z"  horiz-adv-x="1024" />

    
    <glyph glyph-name="bidding_suspend" unicode="&#58964;" d="M512 384m-493.714286 0a493.714286 493.714286 0 1 1 987.428572 0 493.714286 493.714286 0 1 1-987.428572 0ZM384 585.142857h40.411429a18.285714 18.285714 0 0 0 18.285714-18.285714v-384a18.285714 18.285714 0 0 0-18.285714-18.285714H384a18.285714 18.285714 0 0 0-18.285714 18.285714V566.857143a18.285714 18.285714 0 0 0 18.285714 18.285714z m215.588571 0H640a18.285714 18.285714 0 0 0 18.285714-18.285714v-384a18.285714 18.285714 0 0 0-18.285714-18.285714h-40.411429a18.285714 18.285714 0 0 0-18.285714 18.285714V566.857143a18.285714 18.285714 0 0 0 18.285714 18.285714z"  horiz-adv-x="1024" />

    
    <glyph glyph-name="bidding_reduce" unicode="&#58963;" d="M0 486.4h1034.24v-180.224H0z"  horiz-adv-x="1034" />

    
    <glyph glyph-name="bidding_plus" unicode="&#58962;" d="M423.794059 896h178.439604v-421.766337h421.766337v-178.439604H602.233663v-423.794059H423.794059V295.794059H0V474.233663h423.794059z"  horiz-adv-x="1034" />

    
    <glyph glyph-name="bidding_location" unicode="&#58961;" d="M512 337.481143c-111.104 0-201.142857 83.382857-201.142857 186.148571S400.896 709.851429 512 709.851429c111.177143 0 201.142857-83.382857 201.142857-186.221715S623.177143 337.481143 512 337.481143M914.285714 523.702857C914.285714 729.234286 734.281143 896 512 896 289.792 896 109.714286 729.234286 109.714286 523.702857c0-68.022857 19.968-131.437714 54.272-186.221714H163.547429L511.926857-128l348.598857 465.481143h-0.438857c34.377143 54.857143 54.198857 118.272 54.198857 186.221714"  horiz-adv-x="1024" />

    
    <glyph glyph-name="bidding_close" unicode="&#58960;" d="M512 384m-512 0a512 512 0 1 1 1024 0 512 512 0 1 1-1024 0ZM512 432.264533l168.96 168.96a34.133333 34.133333 0 0 0 48.264533-48.264533L560.264533 384l168.96-168.96a34.133333 34.133333 0 0 0-48.264533-48.264533L512 335.735467l-168.96-168.96a34.133333 34.133333 0 0 0-48.264533 48.264533l168.96 168.96-168.96 168.96a34.133333 34.133333 0 0 0 48.264533 48.264533l168.96-168.96z"  horiz-adv-x="1024" />

    
    <glyph glyph-name="membership_qichuan-gray" unicode="&#58959;" d="M512 384m-512 0a512 512 0 1 1 1024 0 512 512 0 1 1-1024 0ZM512 384m-426.673633 0a426.673633 426.673633 0 1 1 853.347266 0 426.673633 426.673633 0 1 1-853.347266 0ZM516.263184 371.189551m-405.336817 0a405.336816 405.336816 0 1 1 810.673633 0 405.336816 405.336816 0 1 1-810.673633 0ZM595.612735 528.822857c15.966041 0 28.901878-12.956735 28.901877-28.922775v-218.070204a20.897959 20.897959 0 0 0-20.897959-20.89796h-16.007837a20.897959 20.897959 0 0 0-20.897959 20.89796V499.900082c0 15.966041 12.956735 28.922776 28.901878 28.922775z m-189.189225-89.046204h115.774694c-0.585143 0.292571-5.433469 4.158694-14.586775 11.577469a1092.754286 1092.754286 0 0 0-32.412735 27.585307c-1.170286 0.606041-5.370776 4.179592-12.622367 10.699755a405.148735 405.148735 0 0 0-13.500082 12.455183c-0.585143-0.292571-2.319673-2.654041-5.22449-7.105306-0.856816-2.089796-7.251592-11.577469-19.142531-28.504816a140.726857 140.726857 0 0 1-6.75004-9.801143c-3.907918-5.93502-7.753143-11.577469-11.535674-16.927347z m213.702531-267.493877c-9.404082 5.12-9.404082 16.467592-9.153306 35.756408 12.476082-1.776327 15.610776-2.089796 26.749387 0s17.136327 8.192 18.034939 18.348408V543.95298a29.382531 29.382531 0 1 0 58.765061 0V208.039184c-1.483755-15.798857-11.953633-26.017959-31.388734-30.636408-19.435102-4.597551-40.437551-6.332082-63.007347-5.140898z m-174.28898 130.486857c-6.123102 20.960653-11.389388 39.037388-6.123102 53.227102 9.32049-0.898612 17.345306-0.522449 24.032653 1.107592 6.729143 1.630041 10.365388 6.311184 10.950531 14.043428v17.345306a28.003265 28.003265 0 1 1-56.006531 0v-146.076734c0.606041-16.028735 9.633959-23.154939 27.146449-21.378613h15.736163c20.68898 0 31.054367 21.39951 30.615511 59.203919 21.106939 3.970612 37.052082-4.722939 54.251102-16.049633 1.734531-51.09551-21.002449-75.901388-68.252735-74.417633H434.468571c-25.370122-0.606041-43.739429 3.489959-55.107918 12.246204-11.36849 8.777143-16.927347 26.226939-16.613877 52.370286V388.806531a30.134857 30.134857 0 0 0-40.918205-2.883919c-12.622367 10.177306-17.073633 18.264816-13.332898 24.283429 46.08 48.420571 79.913796 105.743673 101.48049 172.011102 4.702041 17.219918 46.309878-3.594449 66.497306-15.151021 3.88702-2.236082 4.597551-3.343673 1.525551-7.356081a816.692245 816.692245 0 0 1-8.526367-11.36849l42.172082-28.086857a62.693878 62.693878 0 0 0 22.235428-78.367347l-1.421061-3.155592v-88.105796c-0.877714-20.793469-9.696653-34.398041-26.456816-40.771918-16.781061-6.394776-37.99249-7.397878-60.144327-7.105306z"  horiz-adv-x="1024" />

    
    <glyph glyph-name="membership_attendance_gray" unicode="&#58958;" d="M512 384m-512 0a512 512 0 1 1 1024 0 512 512 0 1 1-1024 0ZM761.438041 543.326041c0 13.458286-10.616163 24.178939-23.969959 24.178939H328.306939c-13.353796 0-23.969959-10.720653-23.969959-24.178939v-363.41551c0-13.458286 10.616163-24.178939 23.969959-24.178939H737.48898c13.353796 0 23.969959 10.720653 23.969959 24.178939v363.41551zM794.122449 179.910531A56.842449 56.842449 0 0 0 737.468082 122.77551H328.306939A56.842449 56.842449 0 0 0 271.673469 179.910531v363.41551a56.842449 56.842449 0 0 0 56.654368 57.13502H737.48898A56.842449 56.842449 0 0 0 794.122449 543.326041v-363.41551zM386.068898 509.826612a16.467592 16.467592 0 0 0-16.342204 16.467592v123.339755c0 9.069714 7.356082 16.48849 16.342204 16.48849 8.986122 0 16.363102-7.418776 16.363102-16.48849v-123.339755a16.467592 16.467592 0 0 0-16.363102-16.467592z m285.758694 0a16.467592 16.467592 0 0 0-16.363102 16.467592v123.339755c0 9.069714 7.356082 16.48849 16.363102 16.48849 8.986122 0 16.342204-7.418776 16.342204-16.48849v-123.339755a16.467592 16.467592 0 0 0-16.342204-16.467592z m95.984326-369.141551l-470.789224 7.774041c-4.639347 0-18.808163 64.114939-18.808163 164.780408 0 100.644571 3.552653 177.632653 8.150204 177.632653H776.150204c4.618449 0 8.150204-76.988082 8.150204-177.632653 0-100.665469-16.091429-132.137796-8.150204-150.590694l-8.338286-21.963755z m-280.659591 87.019102a12.329796 12.329796 0 0 1 8.693551-3.301877c3.552653 0 6.269388 1.671837 8.442775 3.866122l24.805878 26.080653v0.271674l117.65551 122.524734a10.846041 10.846041 0 0 1 3.280979 8.50547 11.222204 11.222204 0 0 1-3.824326 8.254694l-20.960653 20.312816c-2.194286 2.215184-6.541061 3.301878-10.093714 3.301878-3.260082 0-4.890122-1.650939-7.084409-3.845225l-64.825469-73.62351c-13.604571-15.109224-45.202286-48.33698-51.471673-48.33698-5.997714 0-13.897143 9.884735-16.091429 12.079021l-26.41502 24.450612a12.789551 12.789551 0 0 1-8.714449 3.301877c-3.260082 0-6.269388-1.650939-8.442776-3.845224l-16.613878-17.30351a10.846041 10.846041 0 0 1-3.260081-8.526368c0-3.28098 1.630041-6.311184 3.803428-8.505469l71.094858-65.661388z"  horiz-adv-x="1024" />

    
    <glyph glyph-name="flash-sale_wechat" unicode="&#58957;" d="M934.627556 278.869333a41.358222 41.358222 0 0 0-40.675556 42.097778c0 23.210667 18.204444 41.984 40.675556 41.984 22.414222 0 40.618667-18.773333 40.618666-42.040889 0-23.210667-18.204444-42.040889-40.618666-42.040889m-243.825778 42.097778a41.358222 41.358222 0 0 0-40.618667 41.984c0 23.267556 18.204444 42.097778 40.618667 42.097778 22.414222 0 40.618667-18.830222 40.618666-42.097778 0-23.210667-18.204444-42.040889-40.618666-42.040889M1137.777778 236.145778c0 162.531556-162.588444 295.025778-345.144889 295.025778-193.422222 0-345.656889-132.494222-345.656889-295.025778 0-162.816 152.291556-295.025778 345.656889-295.025778 40.448 0 81.237333 10.24 121.912889 20.423111l111.502222-61.098667-30.606222 101.603556C1077.020444 63.260444 1137.777778 144.440889 1137.777778 236.145778M264.135111 573.212444c-33.678222 0-60.984889 28.216889-60.984889 63.089778 0 34.816 27.306667 63.032889 60.984889 63.032889 33.678222 0 60.928-28.216889 60.928-63.032889 0-34.872889-27.306667-63.089778-60.928-63.089778m284.444445 126.122667c33.678222 0 60.928-28.216889 60.928-63.032889 0-34.872889-27.306667-63.089778-60.928-63.089778-33.678222 0-60.984889 28.216889-60.984889 63.089778 0 34.816 27.306667 63.032889 60.984889 63.032889M773.688889 578.958222c13.084444 0 26.112-0.967111 38.968889-2.446222C777.671111 743.537778 603.420444 867.555556 404.48 867.555556 182.101333 867.555556 0 712.248889 0 515.128889c0-113.834667 60.586667-207.246222 161.848889-279.779556l-40.391111-124.643555 141.368889 72.590222c50.631111-10.24 91.192889-20.764444 141.710222-20.764444 12.686222 0 25.258667 0.625778 37.774222 1.649777a315.619556 315.619556 0 0 0-12.515555 86.812445c0 181.077333 151.779556 327.964444 343.950222 327.964444"  horiz-adv-x="1137" />

    
    <glyph glyph-name="flash-sale_triangle" unicode="&#58956;" d="M1024 384L0-128V896z"  horiz-adv-x="1024" />

    
    <glyph glyph-name="flash-sale_remind" unicode="&#58955;" d="M739.242667 501.589333C739.242667 625.152 637.44 725.333333 512 725.333333 386.56 725.333333 284.757333 625.152 284.757333 501.589333M284.416 213.333333V502.869333 469.333333m455.168 33.536V213.333333M256 554.666667h512v-341.333334H256z"  horiz-adv-x="1024" />

    
    <glyph glyph-name="flash-sale_phone" unicode="&#58954;" d="M896 128H128V768a128 128 0 0 0 128 128h512a128 128 0 0 0 128-128v-640z m0-64v-64a128 128 0 0 0-128-128H256a128 128 0 0 0-128 128v64h768z"  horiz-adv-x="1024" />

    
    <glyph glyph-name="home_chicks" unicode="&#58950;" d="M384 896h1856c281.6 0 512-230.4 512-512s-230.4-512-512-512H0V512c0 211.2 172.8 384 384 384zM1734.4 896H2240c281.6 0 512-230.4 512-512s-230.4-512-512-512H896L1734.4 896zM934.4 595.2c-12.8-102.4-38.4-185.6-70.4-262.4 25.6-38.4 44.8-76.8 57.6-108.8l-38.4-32c-12.8 25.6-25.6 57.6-44.8 89.6-38.4-70.4-76.8-121.6-121.6-160-6.4 12.8-25.6 32-32 38.4 51.2 38.4 96 96 128 172.8-32 51.2-70.4 108.8-102.4 160l32 19.2c25.6-44.8 57.6-89.6 89.6-134.4 19.2 57.6 38.4 115.2 51.2 179.2h-185.6v44.8h204.8l32-6.4z m262.4-403.2h-249.6v44.8h249.6v-44.8zM1280 326.4c-6.4-160-12.8-217.6-32-236.8-12.8-12.8-25.6-19.2-44.8-19.2h-83.2c0 12.8-6.4 32-12.8 38.4 32 0 64-6.4 70.4-6.4 12.8 0 19.2 0 19.2 6.4 12.8 12.8 19.2 57.6 19.2 185.6h-262.4v320h89.6c6.4 19.2 19.2 44.8 25.6 64l51.2-6.4c-12.8-19.2-19.2-38.4-32-57.6h140.8v-19.2c-6.4-128-12.8-172.8-25.6-192-12.8-12.8-19.2-12.8-38.4-19.2h-64c0 12.8-6.4 32-12.8 38.4h51.2c6.4 0 12.8 0 19.2 6.4 6.4 12.8 12.8 44.8 19.2 147.2h-179.2v-230.4H1280v-19.2z m-204.8 217.6c25.6-19.2 57.6-51.2 70.4-70.4l-32-25.6c-12.8 19.2-44.8 51.2-70.4 70.4l32 25.6zM1964.8 601.6v-44.8h-160v-76.8h-51.2V556.8h-185.6v-76.8h-51.2V556.8h-153.6v44.8h153.6V678.4h51.2v-76.8h185.6V678.4h51.2v-76.8h160z m-531.2-147.2h467.2V64h-51.2v32h-371.2v-32h-44.8V454.4z m51.2-44.8v-108.8h160V409.6h-160z m153.6-268.8V256h-160v-115.2h160z m211.2 268.8h-160v-108.8h160V409.6z m0-268.8V256h-160v-115.2h160z"  horiz-adv-x="2752" />

    
    <glyph glyph-name="home_oldchicks" unicode="&#58952;" d="M384 896h1856c281.6 0 512-230.4 512-512s-230.4-512-512-512H0V512c0 211.2 172.8 384 384 384zM1734.4 896H2240c281.6 0 512-230.4 512-512s-230.4-512-512-512H896L1734.4 896zM1049.6 409.6c-32-25.6-70.4-51.2-108.8-76.8v-64c83.2 19.2 172.8 51.2 230.4 76.8l38.4-32c-70.4-32-172.8-64-268.8-89.6v-57.6c0-25.6 6.4-32 57.6-32h172.8c44.8 0 51.2 12.8 51.2 89.6 12.8-6.4 32-12.8 44.8-19.2-6.4-89.6-25.6-115.2-96-115.2h-172.8c-83.2 0-102.4 12.8-102.4 70.4V300.8c-44.8-25.6-96-51.2-147.2-70.4-6.4 12.8-25.6 32-32 38.4 96 32 185.6 83.2 262.4 134.4h-256v51.2h217.6V537.6h-160v44.8h160V672h44.8v-83.2h160v-32c25.6 32 51.2 57.6 76.8 89.6l44.8-19.2c-44.8-64-96-121.6-153.6-172.8h185.6v-44.8h-249.6z m-19.2 44.8c32 25.6 64 57.6 96 83.2h-147.2v-83.2h51.2zM1587.2 588.8c-12.8-96-38.4-179.2-64-249.6 25.6-38.4 44.8-76.8 57.6-102.4l-44.8-32c-12.8 25.6-25.6 51.2-44.8 83.2-32-64-76.8-115.2-115.2-153.6-6.4 12.8-25.6 25.6-32 32 44.8 32 89.6 89.6 121.6 166.4-32 51.2-64 102.4-96 147.2l32 32c25.6-38.4 57.6-83.2 83.2-121.6 19.2 51.2 38.4 108.8 44.8 166.4h-179.2v38.4h198.4l38.4-6.4z m249.6-377.6H1600V256h236.8v-44.8zM1920 332.8c-6.4-153.6-12.8-204.8-25.6-224-12.8-12.8-25.6-19.2-38.4-19.2h-76.8c0 12.8-6.4 25.6-12.8 38.4 32 0 57.6-6.4 70.4-6.4 12.8 0 19.2 0 19.2 6.4 12.8 12.8 12.8 57.6 19.2 179.2h-249.6V614.4h83.2c6.4 19.2 19.2 44.8 25.6 64l51.2-6.4c-12.8-19.2-19.2-38.4-32-51.2h134.4v-19.2c-6.4-121.6-12.8-166.4-25.6-179.2-6.4-12.8-19.2-12.8-32-12.8h-57.6c0 12.8-6.4 25.6-12.8 38.4h51.2c6.4 0 12.8 0 19.2 6.4-6.4-6.4 0 25.6 6.4 121.6H1664v-217.6h256v-25.6z m-198.4 211.2c25.6-19.2 57.6-51.2 70.4-64l-25.6-25.6c-12.8 19.2-44.8 51.2-70.4 70.4l25.6 19.2z"  horiz-adv-x="2752" />

    
    <glyph glyph-name="home_theend" unicode="&#58953;" d="M384 896h1856c281.6 0 512-230.4 512-512s-230.4-512-512-512H0V512c0 211.2 172.8 384 384 384zM1734.4 896H2240c281.6 0 512-230.4 512-512s-230.4-512-512-512H896L1734.4 896zM787.2 121.6c70.4 0 83.2 19.2 89.6 128 12.8-6.4 32-19.2 51.2-19.2-12.8-121.6-32-153.6-140.8-153.6H537.6c-108.8 0-140.8 19.2-140.8 102.4V505.6H448v-108.8h345.6V569.6H364.8v44.8h480v-300.8h-51.2v32H448v-172.8c0-38.4 12.8-51.2 83.2-51.2h256zM1222.4 320v-44.8c-185.6-32-204.8-38.4-224-44.8 0 12.8-12.8 32-19.2 44.8 12.8 6.4 32 19.2 51.2 44.8 12.8 12.8 38.4 44.8 70.4 89.6-76.8-12.8-89.6-19.2-102.4-25.6-6.4 12.8-12.8 38.4-19.2 51.2 12.8 0 25.6 19.2 38.4 38.4 12.8 19.2 64 102.4 89.6 179.2l51.2-19.2c-32-70.4-70.4-134.4-108.8-192l89.6 6.4c12.8 25.6 32 44.8 38.4 70.4l44.8-25.6c-44.8-70.4-96-140.8-147.2-198.4l147.2 25.6z m-236.8-179.2c57.6 12.8 153.6 32 236.8 44.8l6.4-44.8c-83.2-19.2-172.8-38.4-236.8-51.2l-6.4 51.2z m448 384v-102.4h140.8v-44.8h-320v44.8h134.4V524.8h-153.6v44.8h153.6V659.2h51.2v-89.6h147.2v-44.8h-153.6z m-166.4-217.6h288v-249.6h-51.2v25.6h-192v-25.6h-44.8V307.2z m44.8-44.8V128h192V262.4h-192zM2003.2 281.6c64-70.4 160-134.4 256-160-12.8-12.8-25.6-32-32-44.8-89.6 32-179.2 96-249.6 172.8v-192h-51.2v192c-64-70.4-153.6-134.4-243.2-166.4-6.4 12.8-25.6 32-32 38.4 89.6 32 192 96 249.6 166.4h-179.2v192h204.8v64h-256v44.8h256V659.2h51.2v-70.4h256v-44.8h-256v-70.4h211.2v-192h-185.6z m-236.8 44.8h160V428.8h-160v-102.4z m211.2 102.4v-102.4h160V428.8h-160z"  horiz-adv-x="2752" />

    
    <glyph glyph-name="home_index-search" unicode="&#58951;" d="M1008.99838-28.957787l-77.653788-77.695525a34.934813 34.934813 0 0 0-24.646365-10.204973h-0.104345a34.851337 34.851337 0 0 0-24.688103 10.351056l-165.783845 167.745537a34.767861 34.767861 0 0 0 0.146084 49.084039l12.834474 12.834474-38.378209 38.336471a406.425023 406.425023 0 0 0-262.345004-95.20467c-109.395634 0-212.238382 42.572891-289.600003 119.913642C-20.869064 345.72539-20.869064 605.357416 138.758407 764.984887A407.113702 407.113702 0 0 0 428.379279 884.856791c109.374765 0 212.238382-42.572891 289.558264-119.871904a406.445892 406.445892 0 0 0 119.976249-289.433049 405.694606 405.694606 0 0 0-97.792434-264.953638l38.232125-38.211256 15.61006 15.58919a34.746992 34.746992 0 0 0 24.625496 10.184104c9.537162-0.772155 18.239562-3.714693 24.771579-10.351056l165.762976-167.703799a34.78873 34.78873 0 0 0-0.125214-49.06317zM768.231987 475.551838c0 90.738691-35.352195 176.030556-99.545436 240.182058a337.724064 337.724064 0 0 1-240.307272 99.482829c-90.780429 0-176.114032-35.331326-240.328143-99.482829-132.476819-132.45595-132.476819-347.908167 0-480.30151a337.744933 337.744933 0 0 1 240.328143-99.503697c90.780429 0 176.114032 35.331326 240.286403 99.503697a337.118861 337.118861 0 0 1 99.566305 240.119452z"  horiz-adv-x="1042" />

    
    <glyph glyph-name="help-center_track-order" unicode="&#58949;" d="M0 896m273.066667 0l477.866666 0q273.066667 0 273.066667-273.066667l0-477.866666q0-273.066667-273.066667-273.066667l-477.866666 0q-273.066667 0-273.066667 273.066667l0 477.866666q0 273.066667 273.066667 273.066667ZM332.936533 669.866667h366.660267c19.2512 0 37.6832-7.5776 51.336533-21.0944 13.653333-13.5168 21.333333-31.914667 21.333334-51.0976v-427.349334c0-39.936-32.5632-72.192-72.669867-72.192H332.936533a72.430933 72.430933 0 0 0-72.669866 72.192V597.674667c0 39.936 32.5632 72.192 72.669866 72.192z m0-42.666667a29.764267 29.764267 0 0 1-30.0032-29.525333v-427.349334c0-16.247467 13.380267-29.525333 30.0032-29.525333h366.660267a29.764267 29.764267 0 0 1 30.0032 29.525333V597.674667a29.320533 29.320533 0 0 1-8.704 20.821333 30.242133 30.242133 0 0 1-21.2992 8.704H332.936533zM392.533333 469.333333H648.533333a21.333333 21.333333 0 1 1 0 42.666667h-256a21.333333 21.333333 0 1 1 0-42.666667zM392.533333 366.933333H648.533333a21.333333 21.333333 0 1 1 0 42.666667h-256a21.333333 21.333333 0 1 1 0-42.666667zM392.533333 256h170.666667a21.333333 21.333333 0 1 1 0 42.666667h-170.666667a21.333333 21.333333 0 1 1 0-42.666667z"  horiz-adv-x="1024" />

    
    <glyph glyph-name="help-center_search" unicode="&#58948;" d="M0 896m273.066667 0l477.866666 0q273.066667 0 273.066667-273.066667l0-477.866666q0-273.066667-273.066667-273.066667l-477.866666 0q-273.066667 0-273.066667 273.066667l0 477.866666q0 273.066667 273.066667 273.066667ZM704.4096 229.205333C755.8144 279.6544 785.066667 346.760533 785.066667 418.133333c0 150.971733-130.048 273.066667-290.133334 273.066667C334.848 691.2 204.8 569.105067 204.8 418.133333s130.048-273.066667 290.133333-273.066666c43.076267 0 84.855467 8.874667 123.050667 25.7024a21.0944 21.0944 0 0 1 10.922667 28.2624 22.254933 22.254933 0 0 1-29.115734 10.581333 259.208533 259.208533 0 0 0-104.8576-21.879467c-136.123733 0-246.1696 103.3216-246.1696 230.4s110.045867 230.4 246.1696 230.4c136.123733 0 246.1696-103.3216 246.1696-230.4 0-59.972267-24.576-116.3264-67.925333-158.9248a20.8896 20.8896 0 0 1 0.170667-30.173866c8.6016-8.2944 22.528-8.192 31.061333 0.170666zM689.0496 211.0464l96.426667-94.446933a19.387733 19.387733 0 0 1 28.330666 1.024 21.777067 21.777067 0 0 1-0.989866 29.730133l-96.426667 94.446933a19.387733 19.387733 0 0 1-28.330667-1.024 21.777067 21.777067 0 0 1 0.989867-29.730133z"  horiz-adv-x="1024" />

    
    <glyph glyph-name="help-center_sales-process" unicode="&#58947;" d="M0 896m273.066667 0l477.866666 0q273.066667 0 273.066667-273.066667l0-477.866666q0-273.066667-273.066667-273.066667l-477.866666 0q-273.066667 0-273.066667 273.066667l0 477.866666q0 273.066667 273.066667 273.066667ZM349.457067 554.666667h359.185066a67.242667 67.242667 0 0 0 66.525867-56.593067l42.8032-271.086933A100.522667 100.522667 0 0 0 718.165333 110.933333H339.968a100.727467 100.727467 0 0 0-99.805867 116.053334l42.8032 271.086933A67.242667 67.242667 0 0 0 349.457067 554.666667z m0-41.847467a25.224533 25.224533 0 0 1-24.917334-21.230933L281.736533 220.501333a58.7776 58.7776 0 0 1 58.197334-67.6864H718.165333a58.641067 58.641067 0 0 1 58.197334 67.6864l-42.769067 271.086934a25.224533 25.224533 0 0 1-24.917333 21.230933H349.422933zM418.133333 520.533333V596.923733c0 27.306667 21.026133 49.390933 46.933334 49.390934h93.866666c25.941333 0 46.933333-22.1184 46.933334-49.390934V520.533333H648.533333V596.923733C648.533333 648.977067 608.426667 691.2 558.933333 691.2h-93.866666C415.573333 691.2 375.466667 648.977067 375.466667 596.923733V520.533333h42.666666zM437.3504 381.44a21.333333 21.333333 0 0 1-32.9728-27.0336l68.3008-83.285333c7.645867-9.352533 21.504-10.478933 30.583467-2.525867l166.570666 146.2272a21.333333 21.333333 0 0 1-28.16 32.085333l-149.981866-131.6864-54.340267 66.218667z"  horiz-adv-x="1024" />

    
    <glyph glyph-name="help-center_register" unicode="&#58946;" d="M0 896m204.8 0l614.4 0q204.8 0 204.8-204.8l0-614.4q0-204.8-204.8-204.8l-614.4 0q-204.8 0-204.8 204.8l0 614.4q0 204.8 204.8 204.8ZM496.4864 306.432a201.7024 201.7024 0 1 1 0 403.3792 201.7024 201.7024 0 0 1 0-403.3792z m0 42.9056a158.7712 158.7712 0 1 0 0 317.568 158.7712 158.7712 0 0 0 0-317.568zM491.1104 352.9728c-151.1424 0-279.8848-114.5344-304.64-270.3872a21.0432 21.0432 0 0 1 17.3056-24.1408 20.9152 20.9152 0 0 1 23.9104 17.4592c21.5808 135.7312 133.12 234.9312 263.424 234.9568a20.992 20.992 0 0 1 20.8896 21.0432 20.992 20.992 0 0 1-20.8896 21.0688zM579.712 166.784H816.64c11.6736 0 21.1456 10.4192 21.1456 23.296 0 12.8256-9.472 23.2448-21.1456 23.2448h-236.9536c-11.6992 0-21.1712-10.4192-21.1712-23.2704s9.472-23.2704 21.1712-23.2704zM682.6752 316.288V79.36c0-11.6736 10.4192-21.1456 23.2704-21.1456s23.2704 9.472 23.2704 21.1456v236.9536c0 11.6992-10.4192 21.1712-23.296 21.1712-12.8256 0-23.2448-9.472-23.2448-21.1712z"  horiz-adv-x="1024" />

    
    <glyph glyph-name="help-center_evaluate" unicode="&#58945;" d="M0 896m273.066667 0l477.866666 0q273.066667 0 273.066667-273.066667l0-477.866666q0-273.066667-273.066667-273.066667l-477.866666 0q-273.066667 0-273.066667 273.066667l0 477.866666q0 273.066667 273.066667 273.066667ZM366.933333 452.266667h287.914667a21.333333 21.333333 0 1 1 0 42.666666H366.933333a21.333333 21.333333 0 1 1 0-42.666666zM366.933333 341.333333h170.666667a21.333333 21.333333 0 1 1 0 42.666667h-170.666667a21.333333 21.333333 0 1 1 0-42.666667zM289.28 622.933333H750.933333a68.266667 68.266667 0 0 0 68.266667-68.266666v-273.066667a68.266667 68.266667 0 0 0-68.266667-68.266667h-46.2848a68.266667 68.266667 0 0 1-44.3392-16.349866l-19.694933-16.827734a58.948267 58.948267 0 0 0-76.8 0.170667l-19.0464 16.452267A68.266667 68.266667 0 0 1 500.189867 213.333333H289.28a68.266667 68.266667 0 0 0-68.266667 68.266667v273.066667a68.266667 68.266667 0 0 0 68.266667 68.266666z m0-42.666666a25.6 25.6 0 0 1-25.6-25.6v-273.066667c0-14.1312 11.4688-25.6 25.6-25.6h210.909867c26.589867 0 52.292267-9.557333 72.430933-26.897067l19.080533-16.452266a16.2816 16.2816 0 0 1 21.1968-0.068267l19.729067 16.861867a110.933333 110.933333 0 0 0 72.021333 26.555733H750.933333a25.6 25.6 0 0 1 25.6 25.6v273.066667a25.6 25.6 0 0 1-25.6 25.6H289.28z"  horiz-adv-x="1024" />

    
    <glyph glyph-name="help-center_ask" unicode="&#58944;" d="M512 384m-512 0a512 512 0 1 1 1024 0 512 512 0 1 1-1024 0ZM672.452923 135.246769h-58.998154l-9.924923 36.942769 60.652308-1.102769c20.952615 0 31.428923 12.130462 31.428923 36.391385V566.980923H481.673846v38.596923h254.188308v-408.576c0-40.802462-21.504-61.755077-63.409231-61.755077zM288.137846 546.028308h40.251077v-414.641231H288.137846V546.028308z m123.510154-79.399385h198.498462v-207.320615h-198.498462v207.320615zM569.895385 297.353846v131.229539h-117.996308V297.353846h117.996308zM370.294154 641.969231c25.363692-30.326154 48.521846-63.409231 68.371692-99.800616l-35.288615-18.195692a592.462769 592.462769 0 0 1-70.025846 102.006154l36.942769 15.990154z"  horiz-adv-x="1024" />

    
    <glyph glyph-name="help-center_answer" unicode="&#58943;" d="M512 384m-512 0a512 512 0 1 1 1024 0 512 512 0 1 1-1024 0ZM344.930462 554.850462c-13.784615-25.915077-29.223385-49.624615-46.867693-71.128616l-33.634461 21.504c34.737231 41.905231 60.100923 87.670154 75.539692 137.846154l38.045538-8.270769c-4.962462-14.887385-10.476308-29.223385-15.990153-43.559385h148.322461v-36.391384h-77.745231c10.476308-17.644308 19.298462-34.185846 25.915077-49.624616l-35.84-13.233231c-8.822154 22.055385-19.298462 43.008-30.326154 62.857847H344.930462z m227.721846 0c-9.924923-17.092923-20.952615-33.083077-32.531693-48.521847l-33.083077 20.401231a326.892308 326.892308 0 0 1 61.755077 115.790769l38.045539-8.270769c-4.962462-15.438769-10.476308-29.774769-15.990154-43.008h165.415385v-36.391384h-89.324308c13.233231-20.952615 24.260923-40.802462 32.531692-58.44677l-35.84-12.681846c-11.027692 24.812308-23.709538 48.521846-38.045538 71.128616h-52.932923z m104.211692-248.123077v-174.237539h-38.045538v24.812308h-253.636924v-24.812308h-38.045538v174.237539h329.728z m-291.682462-113.033847h253.636924V270.296615h-253.636924v-76.642461z m0 189.124924a1064.566154 1064.566154 0 0 0-103.660307-47.970462L262.774154 369.545846c94.286769 35.288615 172.583385 79.399385 235.441231 131.780923h26.466461c69.474462-56.241231 149.425231-100.352 239.852308-132.883692l-19.298462-34.185846a882.609231 882.609231 0 0 0-105.314461 48.521846v-24.812308h-254.739693v24.812308z m233.235693 12.130461a699.392 699.392 0 0 0-106.968616 75.539692c-30.326154-27.017846-65.063385-52.381538-104.763077-75.539692h211.731693z"  horiz-adv-x="1024" />

    
    <glyph glyph-name="logistics_date" unicode="&#58942;" d="M548.557375 752.131581a32.661594 32.661594 0 0 0-32.740297 32.582891c0 18.022904 14.717393 32.582891 32.818999 32.582892h161.340404c18.101606 0 32.818999-14.559988 32.819-32.582892a32.661594 32.661594 0 0 0-32.819-32.582891h-161.340404z m426.33218-32.504189a32.661594 32.661594 0 0 0-32.740297 32.504189c0 18.022904 14.63869 32.582891 32.740297 32.582891h94.836677c82.637768 0 150.16463-64.850972 150.16463-145.442471v-620.9638c0-80.5915-67.448159-145.442472-150.16463-145.442472H189.515948C106.87818-127.134271 39.351318-62.283299 39.351318 18.308201v620.9638c0 80.5915 67.448159 145.442472 150.16463 145.442471H284.903543c18.101606 0 32.818999-14.559988 32.818999-32.582891a32.661594 32.661594 0 0 0-32.818999-32.504189H189.515948c-46.906771 0-84.605334-36.203213-84.605334-80.355391v-620.9638c0-44.073476 37.698563-80.276689 84.605334-80.276689h880.210284c46.906771 0 84.605334 36.203213 84.605334 80.276689v620.9638c0 44.073476-37.698563 80.276689-84.605334 80.276689h-94.836677zM354.161863 869.713319v-104.831911c0-14.481285 17.629391-26.286681 39.351318-26.28668s39.351318 11.805395 39.351318 26.28668V869.713319C432.864499 884.194605 415.235109 896 393.513181 896s-39.351318-11.805395-39.351318-26.286681zM826.37768 869.713319v-104.831911c0-14.481285 17.629391-26.286681 39.351319-26.28668s39.351318 11.805395 39.351318 26.28668V869.713319C905.080317 884.194605 887.450926 896 865.728999 896s-39.351318-11.805395-39.351319-26.286681zM269.635232 502.486819h719.971716c18.49512 0 33.527323 17.629391 33.527323 39.351318s-14.953501 39.351318-33.527323 39.351318H269.635232C251.140112 581.189455 236.107909 563.560065 236.107909 541.838137s14.953501-39.351318 33.527323-39.351318zM386.587349 305.730228h486.067482c17.944201 0 32.425486 17.629391 32.425486 39.351318s-14.481285 39.351318-32.425486 39.351318H386.587349c-17.944201 0-32.425486-17.629391-32.425486-39.351318s14.481285-39.351318 32.425486-39.351318zM269.635232 108.973638h719.971716c18.49512 0 33.527323 17.629391 33.527323 39.351318s-14.953501 39.351318-33.527323 39.351318H269.635232C251.140112 187.676274 236.107909 170.046883 236.107909 148.324956s14.953501-39.351318 33.527323-39.351318z"  horiz-adv-x="1259" />

    
    <glyph glyph-name="feedback_star" unicode="&#58941;" d="M538.947368 87.578947l-316.793263-166.534736 60.52379 352.741052L26.354526 523.587368l354.196211 51.469474L538.947368 896l158.396632-320.943158 354.196211-51.469474-256.323369-249.802105 60.52379-352.741052z"  horiz-adv-x="1077" />

    
    <glyph glyph-name="feedback_play-btn" unicode="&#58940;" d="M897.675636 305.058909L235.52-108.823273A93.090909 93.090909 0 0 0 93.090909-29.882182V797.882182A93.090909 93.090909 0 0 0 235.52 876.823273l662.155636-413.882182a93.090909 93.090909 0 0 0 0-157.882182z"  horiz-adv-x="1024" />

    
    <glyph glyph-name="feedback_ok-pig" unicode="&#58939;" d="M992.165803-13.927461c0-33.696497-112.831005-61.015544-252.020725-61.015544S488.124352-47.623959 488.124352-13.927461s112.831005 61.015544 252.020726 61.015544 252.020725-27.319047 252.020725-61.015544M1070.711378 243.918922c5.661181 49.236891-12.022715 97.364891-46.456704 138.46284 19.599254 37.537824 17.943876 78.216622-6.579068 97.980352-25.403689 20.48-66.90487 11.736207-99.099855-18.607088-38.498155 18.35772-82.477098 31.293016-129.846383 36.895834-45.560041 5.379979-89.576124 3.369119-129.915358-4.695544-30.18943 33.696497-71.860394 45.984497-99.020269 27.027233-21.116684-14.739233-27.961036-44.536041-20.426943-76.147399-46.302839-32.401907-76.922031-76.778777-82.853803-128.34487-7.045969-61.302052 22.082321-120.895668 74.698943-167.320539 4.281699-3.777658 7.332477-9.523731 5.369368-8.754404a281.286964 281.286964 0 0 1-25.690197 8.68543 7.518176 7.518176 0 0 0-4.753907 3.804186c-6.472953 12.977741-19.556808 21.992124-34.77886 22.464332-21.944373 0.673824-40.970611-17.461057-41.580767-39.707855-0.636684-23.13285 17.662674-42.084808 40.333928-42.084808a39.744995 39.744995 0 0 1 23.589139 7.741015c2.92344 2.148808 6.706404 2.594487 9.937576 0.970943a412.825865 412.825865 0 0 1 34.083813-15.259191c11.79457-4.62657-7.841824-74.746694 26.54972-97.99627 40.35515-27.26599 231.365637-38.015337 367.191544-11.858238 28.963813 5.581596 22.936539 32.035813 22.448415 60.660062a8.929492 8.929492 0 0 0 6.844352 8.828684c16.033824 3.782964 30.534301 7.502259 42.960249 11.072995 1.315813 0.376705 2.567959 0.758715 3.767047 1.146031 3.910301 1.246839 8.085886 0.488124 11.470922-1.862301a24.363772 24.363772 0 0 1 18.973181-3.825409c9.412311 1.915358 17.052518 9.582093 19.005016 19.11113 3.310756 16.145244-8.754404 30.359212-24.109099 30.359212a24.305409 24.305409 0 0 1-16.437057-6.393368c-3.570736-3.257699-8.282197-4.748601-12.993658-3.777658a89.613264 89.613264 0 0 1-17.742259 1.862301c-1.575793 0-9.407005 0.196311-19.503751 1.289285-2.865078 0.302425-3.687461 4.20742-1.161948 5.61343 58.999378 32.980228 98.866404 83.01828 105.726673 142.659647M518.594984 502.465658L184.197969 431.247254c-28.502218-7.799378-58.017824 7.985078-66.48572 35.569409L59.620145 674.030756c-7.05658 23.005513 7.62429 47.125223 31.765223 52.160332L463.98342 800.709637c23.498943 4.897161 49.178528 2.43001 54.924601-20.267772l41.915026-207.463461c7.767544-30.666943-10.972187-61.949347-42.228063-70.50744m68.443524 61.020849l-48.149223 212.047586c-6.223585 24.581306-31.266487 39.82458-56.707316 34.524186L78.763109 729.379813c-26.141181-5.448953-42.042363-31.563606-34.391544-56.479171l62.893761-224.351502c9.168249-29.865782 41.119171-46.966052 71.987731-38.519378l362.060933 77.113036c33.850363 9.274363 54.128746 43.140642 45.719212 76.349015M853.989472 243.202653c-3.517679-28.682611-46.653016-47.093389-96.340892-41.124477-49.687876 5.974218-87.119585 34.062591-83.596601 62.745202 3.522984 28.682611 46.653016 47.093389 96.340891 41.119171 49.68257-5.968912 87.11428-34.057285 83.596602-62.739896M827.460974 243.202653c-3.522984-28.687917-46.653016-47.093389-96.340891-41.124477-49.687876 5.968912-87.119585 34.062591-83.596601 62.739897 3.517679 28.687917 46.653016 47.093389 96.340891 41.124476 49.687876-5.968912 87.119585-34.057285 83.596601-62.739896M716.211067 261.024497a7.990383 7.990383 0 0 0-8.876435-6.955772 7.932021 7.932021 0 0 0-6.923938 8.849907 7.985078 7.985078 0 0 0 8.87113 6.950466 7.916104 7.916104 0 0 0 6.929243-8.844601M774.573762 250.413098a7.990383 7.990383 0 0 0-8.87113-6.955772 7.932021 7.932021 0 0 0-6.929243 8.849907 7.990383 7.990383 0 0 0 8.871129 6.950466 7.916104 7.916104 0 0 0 6.929244-8.844601M869.975544 325.769948a21.302383 21.302383 0 0 0-23.66342-18.548725 21.127295 21.127295 0 0 0-18.463834 23.58914 21.307689 21.307689 0 0 0 23.658114 18.548725 21.132601 21.132601 0 0 0 18.463834-23.58914M689.581762 362.909845a21.302383 21.302383 0 0 0-23.66342-18.548726 21.127295 21.127295 0 0 0-18.463834 23.58914 21.307689 21.307689 0 0 0 23.658114 18.548725 21.132601 21.132601 0 0 0 18.463834-23.589139M610.075855 302.239171c-1.379482-11.407254-20.283689-18.500974-42.217451-15.832207-21.928456 2.668767-38.593658 14.076021-37.20887 25.493886 1.384788 11.407254 20.283689 18.495668 42.21745 15.826901 21.933762-2.663461 38.593658-14.076021 37.208871-25.48858M997.391917 243.876477c-1.379482-11.407254-20.283689-18.500974-42.217451-15.832208-21.928456 2.668767-38.593658 14.076021-37.20887 25.493886 1.384788 11.407254 20.283689 18.495668 42.217451 15.826902 21.933762-2.663461 38.593658-14.076021 37.20887-25.48858M443.874819 163.054756l-10.096746 4.918384L367.154404 445.015544"  horiz-adv-x="1443" />

    
    <glyph glyph-name="feedback_edit" unicode="&#58938;" d="M980.478829-128H63.318455a44.885221 44.885221 0 0 0-26.282601 8.533312c-0.853331-0.085333-1.535996-0.341332-2.303994-0.341332a35.925244 35.925244 0 0 0-22.357278 7.67998 31.743921 31.743921 0 0 0-12.202636 28.415929l31.146589 281.343297a31.402588 31.402588 0 0 0 7.93598 17.663956l438.782903 494.846763a35.242579 35.242579 0 0 0 23.637274 11.519971 35.498578 35.498578 0 0 0 25.42927-7.679981l257.706023-205.482153c14.591964-11.605304 16.469292-32.170586 4.181323-45.994552l-437.758906-493.737432a34.901246 34.901246 0 0 0-17.151957-10.325307l-84.394456-22.442611h728.744845c24.06394 0 45.567886 1.279997 45.567886-21.33328 0-22.527944-19.455951-42.66656-43.519891-42.66656zM713.386163 479.742481L508.757341 642.814073 99.414365 180.905894l-24.746605-223.402108 230.143425 61.098514 408.660311 461.140181z m150.356958 65.791835l-311.892554 246.612717 50.005208 55.893194A146.346301 146.346301 0 0 0 710.996836 895.99744c32.426586 0 63.658508-10.751973 88.234446-30.122591l99.583751-78.591804c58.53852-46.335884 65.279837-129.706342 15.103962-185.770202l-50.090541-55.978527z m-9.813309 191.658188L754.516727 815.86964c-28.501262 22.442611-74.581147 17.663956-99.413085-9.983975l-5.20532-5.887985 205.39682-162.218261 5.20532 5.802652c25.599936 28.586595 22.613277 70.655823-6.57065 93.695766z"  horiz-adv-x="1024" />

    
    <glyph glyph-name="feedback_close" unicode="&#58937;" d="M512 384m-512 0a512 512 0 1 1 1024 0 512 512 0 1 1-1024 0ZM512 432.2816l168.96 168.96a34.1504 34.1504 0 0 0 48.2816-48.2816l-168.96-168.96 168.96-168.96a34.1504 34.1504 0 1 0-48.2816-48.2816l-168.96 168.96-168.96-168.96a34.1504 34.1504 0 0 0-48.2816 48.2816l168.96 168.96-168.96 168.96a34.1504 34.1504 0 0 0 48.2816 48.2816l168.96-168.96z"  horiz-adv-x="1024" />

    
    <glyph glyph-name="tabbar_home" unicode="&#58935;" d="M335.2 498.2c-19.4 0-36.7-12.1-43.2-30.3l-40.8-124.7c-1.2-3.4-6-3.4-7.2 0l-28.9 90c-3.6 9.9-3.6 20.7-0.1 30.6l5 14.1c1.9 5.4 5.1 10.3 9.2 14.3l6.3 6h-38.7c-17.3 0-32.7-10.8-38.5-27.1L114.2 345c-1.2-3.4-6-3.4-7.2 0L69.6 468c-6.5 18.2-23.8 30.3-43.1 30.3H0s6-7.7 19.3-48c13.9-42.1 50.1-155.7 50.1-155.7 6.2-17.4 22.7-28.9 41.2-28.9 18.5 0 35 11.6 41.2 28.9l26.9 75.4 27.5-75.8c6.3-17.3 22.7-28.8 41.2-28.8h0.3c18.5 0 34.9 11.6 41.2 28.8 14.3 39.4 40.5 117 55 157.8 12.9 36.4 23.3 46.2 23.3 46.2h-32zM476.4 505.9c-34 0-61.2-11.4-80.7-33.8-19.4-22.3-29.3-53.3-29.3-92.2 0-37.9 10.6-68.1 31.6-89.8 19.4-20 47.2-29.4 87.5-29.4 23.9 0 45.7 5.2 59.6 9.9 12.6 4.3 20.4 14.6 20.4 28v15.9c0 1.1-0.5 2.1-1.4 2.6-0.9 0.6-2 0.6-3 0.2-21.6-10.2-47.6-15.8-73.2-15.8-20.4 0-36.3 5.9-47.5 17.7-10.8 11.4-16.8 27.8-17.8 48.7h152.2c2.5 0 4.5 2 4.5 4.5v24.9c0 33.5-9.3 60.2-27.7 79.5-18.3 19.4-43.6 29.1-75.2 29.1z m49.1-97H423.7c2 17.4 7.5 30.9 16.2 40.1 9.1 9.6 21.4 14.4 36.5 14.4 15.1 0 27.1-4.8 35.7-14.2 8.3-9.1 12.8-22.7 13.4-40.3zM735.5 505.9c-16.1 0-31.1-3.1-44.4-9.4-12.8-6-23.2-14.3-30.1-24-1.3 14.4-13.5 25.8-28.2 25.8h-27.5c-1.2 0-2.2-0.7-2.7-1.7-0.4-1-0.2-2.1 0.5-2.9 3.5-3.8 7.2-11.9 7.7-30.5v-201.4h27c15.3 0 27.7 12.4 27.7 27.7v91.9c0 28.7 4.8 49.3 14.2 61.3 9.3 11.8 24.3 17.8 44.5 17.8 15.1 0 26.2-4.2 33-12.6 6.9-8.5 10.4-21.6 10.4-39.2v-147h27.2c15.3 0 27.7 12.4 27.7 27.7v128c0 58.8-29.3 88.5-87 88.5zM1017.3 362.9c-4.4 8.4-11.2 15.8-20.3 22.2-8.9 6.3-23.3 13.2-42.8 20.7-22.8 8.7-37.8 15.6-44.5 20.5-6.3 4.6-9.4 10.1-9.4 16.7 0 13.5 11.8 19.9 37.3 20h0.5c29.9 0 59.1-13.4 70.3-19.3 1.1-0.6 2.3-0.5 3.3 0.1 1.1 0.6 1.7 1.8 1.7 3v21.5c0 4.1-2.8 21.3-21.7 30.1-10.7 5-35 7.5-52.5 7.5-28.3 0-51-5.7-67.6-16.9-16.8-11.4-25.4-27.7-25.4-48.3 0-17.1 5-31.2 15-42 9.8-10.6 28.6-21.3 55.9-31.8 13.8-5.3 24.6-10.1 32.3-14.2 7.5-4.1 13-8 16.2-11.7 3-3.5 4.5-7.9 4.5-13.2 0-5.8-1.6-10.2-5-13.5-6.1-6.1-18.2-8.7-38.9-8.5-40.3 0.4-68.1 15.2-75.6 19.7-0.8 0.5-1.8 0.5-2.6 0s-1.3-1.3-1.3-2.3v-19.5c0-15.4 9.9-29.2 24.7-34.3 18.3-6.3 36.2-9.5 53.1-9.5 31.6 0 56.2 6.3 73.3 18.7 17.3 12.5 26.1 30.8 26.1 54.2 0.1 11.6-2.2 21.7-6.6 30.1zM821 513.1c-3.4 7.9-12 25.2-12.7 26.5-58.1 109-172.9 183.3-305 183.3-131.7 0-246.2-73.7-304.5-182.2h0.1l43.4-0.2c1.5 0 3 0.2 4.5 0.2h0.7c14.6 0 28.3 5.4 39.5 14.3 6.7 5.3 19.1 19.7 22.7 23.6 54.1 58.7 131.6 95.5 217.7 95.5 104.9 0 197.1-54.6 249.7-136.9 0.3-0.5 0.6-0.9 1-1.4 0.9-1.4 1.7-2.8 2.6-4.2 0.7-1.3 1.6-2.8 2.3-4 0.8-1.2 2.2-1.5 3.9-2 3.7-1.2 7.4-2.7 11-4.2 3-1.3 6.1-2.7 9.2-4.3 3.3-1.9 6.4-3.9 9.3-5.9 1.3-0.9 2.6-0.8 3.1-0.5 0.9 0.6 1.9 1.6 1.5 2.4zM817.6 238.6c-9.2-5.2-19.3-6.1-28-5.5-2.3 0.2-4-1.3-5.7-2.8-55-50.8-119.8-51.1-133.6-51-137.2 1.2-264.4 83.3-427.8 8.2-3.2-1.5-3.9-5.5-1.9-8.4 62.5-88.9 165.8-147 282.7-147 138.2 0 257.4 81.2 312.6 198.5 1.1 2.2 2.2 4.4 3.3 6.7 0.3 0.9-0.7 1.8-1.6 1.3z"  horiz-adv-x="1024" />

    
    <glyph glyph-name="tabbar_home-active" unicode="&#58936;" d="M335.2 498.2c-19.4 0-36.7-12.1-43.2-30.3l-40.8-124.7c-1.2-3.4-6-3.4-7.2 0l-28.9 90c-3.6 9.9-3.6 20.7-0.1 30.6l5 14.1c1.9 5.4 5.1 10.3 9.2 14.3l6.3 6h-38.7c-17.3 0-32.7-10.8-38.5-27.1L114.2 345c-1.2-3.4-6-3.4-7.2 0L69.6 468c-6.5 18.2-23.8 30.3-43.1 30.3H0s6-7.7 19.3-48c13.9-42.1 50.1-155.7 50.1-155.7 6.2-17.4 22.7-28.9 41.2-28.9 18.5 0 35 11.6 41.2 28.9l26.9 75.4 27.5-75.8c6.3-17.3 22.7-28.8 41.2-28.8h0.3c18.5 0 34.9 11.6 41.2 28.8 14.3 39.4 40.5 117 55 157.8 12.9 36.4 23.3 46.2 23.3 46.2h-32zM476.4 505.9c-34 0-61.2-11.4-80.7-33.8-19.4-22.3-29.3-53.3-29.3-92.2 0-37.9 10.6-68.1 31.6-89.8 19.4-20 47.2-29.4 87.5-29.4 23.9 0 45.7 5.2 59.6 9.9 12.6 4.3 20.4 14.6 20.4 28v15.9c0 1.1-0.5 2.1-1.4 2.6-0.9 0.6-2 0.6-3 0.2-21.6-10.2-47.6-15.8-73.2-15.8-20.4 0-36.3 5.9-47.5 17.7-10.8 11.4-16.8 27.8-17.8 48.7h152.2c2.5 0 4.5 2 4.5 4.5v24.9c0 33.5-9.3 60.2-27.7 79.5-18.3 19.4-43.6 29.1-75.2 29.1z m49.1-97H423.7c2 17.4 7.5 30.9 16.2 40.1 9.1 9.6 21.4 14.4 36.5 14.4 15.1 0 27.1-4.8 35.7-14.2 8.3-9.1 12.8-22.7 13.4-40.3zM735.5 505.9c-16.1 0-31.1-3.1-44.4-9.4-12.8-6-23.2-14.3-30.1-24-1.3 14.4-13.5 25.8-28.2 25.8h-27.5c-1.2 0-2.2-0.7-2.7-1.7-0.4-1-0.2-2.1 0.5-2.9 3.5-3.8 7.2-11.9 7.7-30.5v-201.4h27c15.3 0 27.7 12.4 27.7 27.7v91.9c0 28.7 4.8 49.3 14.2 61.3 9.3 11.8 24.3 17.8 44.5 17.8 15.1 0 26.2-4.2 33-12.6 6.9-8.5 10.4-21.6 10.4-39.2v-147h27.2c15.3 0 27.7 12.4 27.7 27.7v128c0 58.8-29.3 88.5-87 88.5zM1017.3 362.9c-4.4 8.4-11.2 15.8-20.3 22.2-8.9 6.3-23.3 13.2-42.8 20.7-22.8 8.7-37.8 15.6-44.5 20.5-6.3 4.6-9.4 10.1-9.4 16.7 0 13.5 11.8 19.9 37.3 20h0.5c29.9 0 59.1-13.4 70.3-19.3 1.1-0.6 2.3-0.5 3.3 0.1 1.1 0.6 1.7 1.8 1.7 3v21.5c0 4.1-2.8 21.3-21.7 30.1-10.7 5-35 7.5-52.5 7.5-28.3 0-51-5.7-67.6-16.9-16.8-11.4-25.4-27.7-25.4-48.3 0-17.1 5-31.2 15-42 9.8-10.6 28.6-21.3 55.9-31.8 13.8-5.3 24.6-10.1 32.3-14.2 7.5-4.1 13-8 16.2-11.7 3-3.5 4.5-7.9 4.5-13.2 0-5.8-1.6-10.2-5-13.5-6.1-6.1-18.2-8.7-38.9-8.5-40.3 0.4-68.1 15.2-75.6 19.7-0.8 0.5-1.8 0.5-2.6 0s-1.3-1.3-1.3-2.3v-19.5c0-15.4 9.9-29.2 24.7-34.3 18.3-6.3 36.2-9.5 53.1-9.5 31.6 0 56.2 6.3 73.3 18.7 17.3 12.5 26.1 30.8 26.1 54.2 0.1 11.6-2.2 21.7-6.6 30.1zM821 513.1c-3.4 7.9-12 25.2-12.7 26.5-58.1 109-172.9 183.3-305 183.3-131.7 0-246.2-73.7-304.5-182.2h0.1l43.4-0.2c1.5 0 3 0.2 4.5 0.2h0.7c14.6 0 28.3 5.4 39.5 14.3 6.7 5.3 19.1 19.7 22.7 23.6 54.1 58.7 131.6 95.5 217.7 95.5 104.9 0 197.1-54.6 249.7-136.9 0.3-0.5 0.6-0.9 1-1.4 0.9-1.4 1.7-2.8 2.6-4.2 0.7-1.3 1.6-2.8 2.3-4 0.8-1.2 2.2-1.5 3.9-2 3.7-1.2 7.4-2.7 11-4.2 3-1.3 6.1-2.7 9.2-4.3 3.3-1.9 6.4-3.9 9.3-5.9 1.3-0.9 2.6-0.8 3.1-0.5 0.9 0.6 1.9 1.6 1.5 2.4zM817.6 238.60000000000002c-9.2-5.2-19.3-6.1-28-5.5-2.3 0.2-4-1.3-5.7-2.8-55-50.8-119.8-51.1-133.6-51-137.2 1.2-264.4 83.3-427.8 8.2-3.2-1.5-3.9-5.5-1.9-8.4 62.5-88.9 165.8-147 282.7-147 138.2 0 257.4 81.2 312.6 198.5 1.1 2.2 2.2 4.4 3.3 6.7 0.3 0.9-0.7 1.8-1.6 1.3z"  horiz-adv-x="1024" />

    
    <glyph glyph-name="membership-center_services-feedback" unicode="&#58917;" d="M145.630312 888.868369h733.267636c75.546465 0 136.793455-61.24699 136.793455-136.793454v-733.267636c0-75.555585-61.24699-136.793455-136.793455-136.793455H145.630312c-75.555585 0-136.793455 61.23787-136.793455 136.793455V752.074915c0 75.546465 61.23787 136.793455 136.793455 136.793454zM246.237338 156.850114V580.280574c0 9.967683 3.985249 19.515866 11.071151 26.565289A37.891787 37.891787 0 0 0 284.019691 617.844057h453.360868C758.246121 617.844057 775.162911 601.027582 775.162911 580.280574v-339.667268c0-20.747007-16.916791-37.563483-37.782352-37.563482H375.260925a75.87477 75.87477 0 0 1-41.411939-12.284053l-68.114021-44.394036a12.630596 12.630596 0 0 0-12.895063-0.556293 12.493802 12.493802 0 0 0-6.602564 11.034672z m219.143115 378.781077l12.156379-194.3835h66.545456l11.946628 194.3835h-90.648463z m12.019585-212.093692v-49.738101h66.545456v49.738101h-66.545456z"  horiz-adv-x="1032" />

    
    <glyph glyph-name="membership-center_services-help-center" unicode="&#58918;" d="M138.862301 893.129843h739.387431c76.206351 0 137.988323-61.781972 137.988323-137.988323v-739.387431c0-76.21555-61.781972-137.988323-137.988323-137.988323H138.862301c-76.21555 0-137.988323 61.772773-137.988323 137.988323V755.14152c0 76.206351 61.772773 137.988323 137.988323 137.988323zM514.07095 661.447448c-155.51284 0-281.496179-125.983339-281.496179-281.496179 0-155.466844 125.983339-281.496179 281.496179-281.496179 155.503641 0 281.496179 126.020136 281.496179 281.496179 0 155.51284-125.992538 281.496179-281.496179 281.496179z m26.079793-464.533089h-75.810785v70.392443h75.810785v-70.392443z m43.788295 187.848103c-33.374776-23.090046-48.121128-52.647145-44.266654-88.524109H464.477947c-3.845275 41.028528 12.060179 81.587896 46.704447 111.108198l5.777112 5.767912c26.935321 23.099245 41.368899 36.677296 41.368899 54.404196 0 23.678796-19.548346 35.462999-35.150226 36.769289-19.833522 0-49.51941-8.693264-49.491812-56.01406h-68.212227c0 43.576712 17.046158 79.941235 43.990677 97.916514 20.514264 15.390298 49.795386 21.986139 76.739906 21.986139 65.434063-3.845275 99.415987-40.375383 101.991769-100.657882 2.548184-25.702625-12.198168-53.263493-44.257454-82.756197z"  horiz-adv-x="1024" />

    
    <glyph glyph-name="membership-center_services-flash-sale" unicode="&#58919;" d="M138.850652 893.111395H878.510483c76.205035 0 137.98594-61.780905 137.985939-137.985939v-739.669031c0-76.205035-61.780905-137.98594-137.985939-137.985939H138.850652c-76.214234 0-137.98594 61.780905-137.98594 137.985939V755.125456c0 76.205035 61.771706 137.98594 137.98594 137.985939zM669.516978 194.175815a239.865559 239.865559 0 0 1 80.133035 179.151745c0 132.889659-107.868209 240.693474-240.813062 240.693474-132.954052 0-240.877455-107.803815-240.877455-240.693474a240.297914 240.297914 0 0 1 74.512407-174.184252l-32.822255-39.050021a24.101544 24.101544 0 0 1 3.017292-33.907744 24.13834 24.13834 0 0 1 33.944541 3.026491l33.889347 40.411482a240.224322 240.224322 0 0 1 128.336123-36.925037c44.468269 0 86.103226 12.013976 121.88758 33.07063l27.735174-35.738358a24.083146 24.083146 0 0 1 19.04206-9.337049c9.171465 0 17.561011 5.19747 21.645394 13.421433a23.991155 23.991155 0 0 1-2.538941 25.325019l-27.09124 34.735661z m-209.002703 34.726461l24.073947 120.342138h-72.212642l144.480478 168.508429-24.073947-120.342137h72.212642L460.514275 228.902276zM267.895102 514.799944A24.018753 24.018753 0 0 0 246.902841 527.099091a24.027952 24.027952 0 0 0 0.469153 24.322321 254.630054 254.630054 0 0 0 106.341164 96.323385 24.193535 24.193535 0 0 0 18.388926 1.067092 23.705984 23.705984 0 0 0 13.715802-12.253152c2.787316-5.740215 3.13688-12.36354 1.067092-18.342931a24.129141 24.129141 0 0 0-12.234754-13.725001 206.049804 206.049804 0 0 1-86.296406-78.100042 23.788776 23.788776 0 0 0-20.458716-11.590819z m481.635323 0a23.94516 23.94516 0 0 0-20.578303 11.471231 205.80143 205.80143 0 0 1-86.222814 78.100042 23.94516 23.94516 0 0 0-12.243952 13.734201 23.825572 23.825572 0 0 0 1.067091 18.34293 23.94516 23.94516 0 0 0 13.715802 12.243953 24.221132 24.221132 0 0 0 18.398126-1.067091 255.485567 255.485567 0 0 0 106.451553-96.258992c4.553536-7.46044 4.728318-16.751493 0.469152-24.322322a24.101544 24.101544 0 0 0-21.056655-12.243952z"  horiz-adv-x="1024" />

    
    <glyph glyph-name="membership-center_services-logistics-application" unicode="&#58920;" d="M145.339699 888.872934h732.991045c75.556215 0 136.794596-61.247501 136.794597-136.794596v-732.991046c0-75.556215-61.238381-136.794596-136.794597-136.794596H145.339699c-75.547096 0-136.794596 61.238381-136.794597 136.794596V752.078338c0 75.547096 61.247501 136.794596 136.794597 136.794596zM716.283866 261.268446c31.526595-0.373905 56.824475-26.611109 56.550886-58.675762-0.237111-32.055534-25.936255-57.882354-57.46285-57.745559-31.535714 0.136795-57.034227 26.136888-57.034227 58.2289a58.876394 58.876394 0 0 0 17.108444 41.339327 56.933911 56.933911 0 0 0 40.837747 16.853094z m-499.719781 63.618607h69.254545v51.6354h-42.935264a29.000454 29.000454 0 0 0-25.179326 14.801175 30.003615 30.003615 0 0 0 0 29.584112 28.982215 28.982215 0 0 0 25.179326 14.773816h42.242171v38.512239h-17.299957a28.973096 28.973096 0 0 0-27.368038 13.898331 30.003615 30.003615 0 0 0 0 31.097971 28.945737 28.945737 0 0 0 27.368038 13.92569h17.299957V550.452223a21.285239 21.285239 0 0 0 6.183116 15.047405 20.610386 20.610386 0 0 0 14.801175 6.101039h335.192359a20.610386 20.610386 0 0 0 14.828535-6.101039c3.967043-4.012641 6.192235-9.402349 6.183115-15.020046v-62.916395h73.367502c15.229798 0 21.713862-9.393229 31.39892-20.883975l46.163616-83.572379a90.266194 90.266194 0 0 0 15.922892-42.479282v-104.930575a21.157564 21.157564 0 0 0-20.984292-21.130205h-20.792778c-5.727134 36.70655-36.861584 63.691564-73.394861 63.691564-36.560636 0-67.658607-26.985014-73.42222-63.691564H494.220637c-5.380587 37.053096-36.670071 64.466733-73.504296 64.466733-36.861584 0-68.123709-27.413637-73.531655-64.466733h-41.77707a21.157564 21.157564 0 0 0-20.984291 21.130205v30.240725h-69.281903a29.018694 29.018694 0 0 0-27.331561 13.92569 30.040093 30.040093 0 0 0 0 31.070613 28.936617 28.936617 0 0 0 27.331561 13.92569h1.404424l0.018239 0.027359z m466.706685 15.740498h111.514955a39.177972 39.177972 0 0 1-9.247315 17.600905l-44.075219 82.149715s-4.842529 4.933725-8.070881 4.933725h-51.252376l1.130836-104.684345zM422.193723 261.268446c31.508355-0.528939 56.660322-26.802621 56.341134-58.839916-0.355666-32.000816-26.045691-57.745559-57.572286-57.581405-31.480996 0.191512-56.906552 26.191605-56.933911 58.2289a58.958471 58.958471 0 0 0 17.163162 41.421403 57.015988 57.015988 0 0 0 41.001901 16.798377v-0.027359z"  horiz-adv-x="1032" />

    
    <glyph glyph-name="membership-center_services-month-demand" unicode="&#58921;" d="M138.862301 893.129843h739.387431c76.206351 0 137.988323-61.781972 137.988323-137.988323v-739.387431c0-76.21555-61.781972-137.988323-137.988323-137.988323H138.862301c-76.21555 0-137.988323 61.772773-137.988323 137.988323V755.14152c0 76.206351 61.772773 137.988323 137.988323 137.988323zM816.909323 133.973285A163.838136 163.838136 0 0 0 701.449893 86.468505c-90.179969 0-163.286182 72.609456-163.286182 162.173076s73.106214 162.163877 163.286182 162.163877S864.736076 338.205202 864.736076 248.641581c0-43.01556-17.202544-84.264869-47.826753-114.668296z m-42.215228 212.428424H634.737139v-111.20019c0.919922-26.990516-6.752229-53.576266-21.930944-75.98557l18.66522-16.678189a145.862857 145.862857 0 0 1 27.524071 71.809123l94.236826 1.398282v-37.072863c0-6.02549-2.327403-9.263616-6.991409-9.263616h-27.993231l6.531447-23.172839h26.59495c15.390298 0 23.320027 7.414573 23.320026 22.243718V346.401709z m-115.698609-76.454731h90.511141v-33.356377h-90.511141v33.356377z m1.398282 52.83113h89.112859v-30.587412l-89.112859-0.919922v31.507334zM516.821517 346.650087a207.727622 207.727622 0 0 1 10.146742-213.845103v-0.469161l-20.063503-12.510941a616.531827 616.531827 0 0 1-155.356453 63.943789 351.750634 351.750634 0 0 1-107.29972 8.803655c-17.60731-0.257578-32.151279 13.568852-32.657236 31.047373v390.598946c-0.285176 17.386529 13.302074 31.9029 30.789794 32.896416a469.831842 469.831842 0 0 0 125.964941-11.121859 406.853971 406.853971 0 0 0 137.160393-62.085546 454.027579 454.027579 0 0 0 139.956956 61.616386 439.805582 439.805582 0 0 0 122.699217 11.591019c17.48772-0.745137 31.277353-15.049926 31.258955-32.436455v-181.62943a205.906176 205.906176 0 0 1-97.97171 24.092761c-77.310258-0.34957-148.199459-42.767181-184.628376-110.49185z m-220.790516-3.495704c8.647268-0.165586 17.24854-1.251094 25.656629-3.238126 11.048265-2.741368 21.820553-6.467053 32.197275-11.121859h5.133166c3.42211 0 6.697033 1.379883 9.070432 3.826877s3.652091 5.749513 3.523302 9.153225a33.816338 33.816338 0 0 1-20.063502 30.578212 230.376105 230.376105 0 0 1-27.05491 8.803655 157.334286 157.334286 0 0 1-25.196668 3.707287l-1.398282-0.929122a20.91903 20.91903 0 0 1-20.992623-20.854635 19.999108 19.999108 0 0 1 19.125181-19.925514z m152.09073 138.080316a366.533783 366.533783 0 0 1-80.71397 26.870926 249.206911 249.206911 0 0 1-69.509318 8.343694 21.986139 21.986139 0 0 1-16.567798-8.132112 21.636569 21.636569 0 0 1-4.424825-17.809693 18.150064 18.150064 0 0 1 19.125181-16.687388 275.57188 275.57188 0 0 0 68.111036-5.096369 439.428414 439.428414 0 0 0 84.448854-29.18913h5.133166c3.412911-0.128789 6.743029 1.140703 9.20842 3.495705 2.465391 2.3642 3.854474 5.611525 3.845275 9.015237a32.399658 32.399658 0 0 1-18.656021 29.18913z"  horiz-adv-x="1024" />

    
    <glyph glyph-name="membership-center_services-quality-evaluation" unicode="&#58922;" d="M138.479856 892.693954h738.966831c76.172195 0 137.909829-61.737633 137.909829-137.909828V15.532281c0-76.163001-61.737633-137.909829-137.909829-137.909829H138.479856c-76.163001 0-137.909829 61.746827-137.909829 137.909829V754.784126c0 76.172195 61.746827 137.909829 137.909829 137.909828zM591.85382 387.263626a87.517577 87.517577 0 0 0-32.960449-68.642318l-29.172525 29.650613-30.799862-31.305531 16.751447-17.008879c-3.263866-0.542445-7.005819-0.542445-10.269685-0.542445-47.689219 0.128716-86.322359 39.387047-86.451075 87.84856 0.147104 48.45232 38.77105 87.683069 86.451075 87.811785 47.680025-0.128716 86.303971-39.359465 86.451074-87.811785zM744.713074 581.560187v-168.001753C744.713074 258.225997 642.613831 113.273573 505.935997 77.591703 368.724912 112.777098 266.625669 258.262773 266.625669 413.59521V581.606157L505.935997 693.588938 744.713074 581.560187zM589.693233 287.288195c28.740408 24.998455 45.307976 61.49859 45.344752 99.938656a132.522151 132.522151 0 0 1-37.879233 93.245432 128.292917 128.292917 0 0 1-91.756006 38.49523c-70.738548-1.231994-127.456264-59.86206-127.456264-131.75905 0-71.896991 56.717715-130.527056 127.456264-131.759051 16.218196 0 31.323919 3.309836 45.914779 8.237814l39.433017-40.03982 30.799861 31.259561-31.85717 32.381228z"  horiz-adv-x="1024" />

    
    <glyph glyph-name="membership-center_services-my-contract" unicode="&#58923;" d="M143.797621 888.03618h732.665329c75.493523 0 136.681093-61.196681 136.681092-136.681093v-732.665328c0-75.484411-61.187569-136.681093-136.681092-136.681093H143.797621c-75.484411 0-136.681093 61.196681-136.681092 136.681093V751.355087c0 75.484411 61.196681 136.681093 136.681092 136.681093zM777.387382 111.742247H554.916124a7.353443 7.353443 0 0 0-5.157434 2.114001 7.198538 7.198538 0 0 0-2.141337 5.10276v68.741478a7.198538 7.198538 0 0 0 2.141337 5.102761 7.353443 7.353443 0 0 0 5.157434 2.114001h33.386634l2.688062 1.139009c58.77287 23.554708 51.856806 96.84311 49.934159 111.285745l-1.148121 7.599469-6.405787 3.799734a62.81863 62.81863 0 0 0-31.108617 53.533428c0.018224 34.388963 28.192753 62.253682 62.964423 62.271906h4.510476c26.853279-2.004656 49.487668-20.602397 56.412843-46.353115a62.281018 62.281018 0 0 0-25.677821-67.939615l-6.150649-3.799734-0.765414-7.216762c-2.688061-20.893983-7.29877-90.391763 49.515003-113.181056l3.20745-1.139009h29.960496c1.931759 0 3.790622-0.765414 5.157433-2.114001a7.198538 7.198538 0 0 0 2.141337-5.102761v-67.976063c0-7.216762-2.688061-7.982176-6.150649-7.982176zM558.761418 380.630404a102.638388 102.638388 0 0 1 40.685405-81.425483c0.765414-16.720654-0.774526-49.360099-24.201665-61.515604h-32.612109c-22.215234 0-40.248026-17.75943-40.339146-39.737749v-78.99256H306.48457c-20.338147 0-36.84011 16.292386-36.867447 36.411844v444.760275c0 20.137681 16.511076 36.466515 36.867447 36.466515h329.064286c20.356371-0.018224 36.849223-16.337947 36.849223-36.466515v-120.75319a80.450491 80.450491 0 0 1-9.604125 0.382707c-57.5883 0-104.032536-42.55338-104.032536-99.13024zM340.973765 344.765285c3.25301-3.289458 7.699702-5.130097 12.346859-5.130097h83.320794a17.404059 17.404059 0 0 1 17.18537 17.440508 16.994016 16.994016 0 0 1-4.929632 12.328634 17.404059 17.404059 0 0 1-12.346859 5.148321h-83.229673a17.695645 17.695645 0 0 1-17.285602-17.476955c-0.091121-4.592485 1.685733-9.030064 4.938743-12.310411z m-2.624277 91.430539a17.312938 17.312938 0 0 1 14.971136-8.547124h128.261537c9.549452 0 17.285602 7.654141 17.285603 17.094249a17.185369 17.185369 0 0 1-17.285603 17.094248H353.320624a17.312938 17.312938 0 0 1-14.971136-8.547124 16.921119 16.921119 0 0 1 0-17.094249z m212.347746 113.436195H353.320624c-9.549452 0-17.285602-7.654141-17.285602-17.094249s7.73615-17.094249 17.285602-17.094248h197.37661c9.54034 0 17.285602 7.654141 17.285602 17.094248s-7.745262 17.094249-17.285602 17.094249z"  horiz-adv-x="1031" />

    
    <glyph glyph-name="membership-center_services-questionnaire" unicode="&#58924;" d="M138.479856 892.693954h738.966831c76.172195 0 137.909829-61.737633 137.909829-137.909828V15.532281c0-76.163001-61.737633-137.909829-137.909829-137.909829H138.479856c-76.163001 0-137.909829 61.746827-137.909829 137.909829V754.784126c0 76.172195 61.746827 137.909829 137.909829 137.909828zM756.536544 395.924364a17.670846 17.670846 0 0 0-12.650929-5.258962c-4.596994 0-9.203183 1.746858-12.650928 5.258962l-62.178945 63.208671c-20.980682-15.81366-46.025107-24.621501-72.669285-24.621501-32.776569 0-63.254641 12.853196-86.258001 36.242703-47.735189 48.525872-47.735189 127.437876 0 175.963747a120.753846 120.753846 0 0 0 172.801015 0c43.469178-44.195503 47.211131-113.288327 11.50168-161.933721l62.105393-63.135119a18.562663 18.562663 0 0 0 0-25.72478zM657.342601 620.698996a84.345651 84.345651 0 0 1-60.956144 25.72478 84.345651 84.345651 0 0 1-60.956145-25.72478c-33.640804-34.192443-33.640804-89.733328 0-123.934966 16.383688-16.659507 37.952785-25.715586 60.956145-25.715586s44.563263 9.056079 60.956144 25.715586c33.640804 34.201637 33.640804 89.742522 0 123.934966zM454.918554 448.835768H350.548396c-10.067417 0-18.112157 8.18265-18.112157 18.406365 0 10.232909 8.04474 18.415559 18.112157 18.415559h104.085145c10.067417 0 18.112157-8.18265 18.112157-18.415559 0-10.223715-8.04474-18.406365-17.827144-18.406365z m104.085145-87.692263H350.548396c-10.067417 0-18.112157 8.18265-18.112157 18.415559 0 10.223715 8.04474 18.415559 18.112157 18.415559h208.455303c10.067417 0 18.121351-8.191844 18.121352-18.415559 0-10.232909-8.053934-18.415559-18.121352-18.415559z m0-87.986471H350.548396c-10.067417 0-18.112157 8.18265-18.112157 18.415559s8.04474 18.415559 18.112157 18.41556h208.455303c10.067417 0 18.121351-8.18265 18.121352-18.41556s-8.053934-18.415559-18.121352-18.415559z m-120.76304 301.654765H290.456487v-345.500896h73.322059c10.058223 0 18.112157-8.18265 18.112157-18.406365v-76.291717h237.499113V400.015689c0 10.232909 8.04474 18.415559 18.112158 18.415559 10.058223 0 18.112157-8.18265 18.112157-18.415559v-270.671024c-0.570027-17.238729-14.08519-30.983741-30.763086-30.983741H363.778546c-5.240573 0-9.901926 2.252527-13.193374 5.819794l-89.209271 92.399585a18.387977 18.387977 0 0 0-7.152923 14.609248V580.659176c0 16.953715 13.515163 30.983741 30.193058 30.983742h153.824623c10.067417 0 18.121351-8.191844 18.121352-18.41556 0-10.232909-8.053934-18.415559-18.121352-18.415559z m-92.583465-413.60077v31.562963h-30.478072l30.478072-31.562963z"  horiz-adv-x="1024" />

    
    <glyph glyph-name="membership-center_services-special-sale" unicode="&#58925;" d="M138.272363 893.115994h739.666531c76.214924 0 137.98719-61.781464 137.987189-137.98719v-739.67573c0-76.205725-61.772265-137.98719-137.987189-137.987189H138.272363c-76.205725 0-137.98719 61.781464-137.987189 137.987189V755.128804c0 76.205725 61.781464 137.98719 137.987189 137.98719zM805.881983 396.684082l-53.980588 254.963529c-0.680737 2.023812-1.692643 4.047624-3.044918 5.3907 1.352274-71.826932 0.340368-143.672262 0.680737-215.839562-2.023812-18.214309 4.387993-37.771693-3.707256-55.314465-77.944364-82.286361-158.584077-162.21774-237.531148-243.501394-9.447523-12.81441-22.602302-21.921565-37.449723-26.971896l61.063931-40.135873c29.354475-19.226215 68.82801-10.459429 87.723056 19.557384L804.18934 387.576927c1.692643 2.69535 2.364181 6.071436 1.692643 9.107155zM569.031572 602.404583a67.448138 67.448138 0 0 0 48.58069 20.578489c17.211602 0 34.754373-6.742974 48.249521-20.578489 26.659125-26.971896 26.659125-71.155394 0-98.136489a67.438939 67.438939 0 0 0-96.830211 0c-26.659125 26.981095-26.659125 71.164593 0 98.136489z m161.941766-211.1204c2.364181 2.364181 3.376087 5.399899 3.376086 8.426418V660.754766c0 3.035718-1.343075 6.071436-3.376086 8.095248a10.98378 10.98378 0 0 1-8.095249 3.376087H466.801463c-3.044917 0-6.071436-1.352274-8.104448-3.376087L217.458612 422.98444c-24.626114-25.288452-24.626114-66.445431 0-91.733884l182.538653-186.163117c24.966482-25.297651 65.111555-25.297651 89.746868 0l241.229205 246.196744zM389.197468 274.252648l-24.635313 24.957283c9.456722 6.411805 17.211602 13.154779 27.339861 23.273839l22.261934 22.261933-35.085543 35.067145c-10.799797 10.799797-17.211602 16.190497-26.659125 22.933471l24.966482 24.957283c6.411805-9.778692 11.811703-16.181298 22.611501-26.971896l35.085543-35.076344 12.142872 12.133674 5.399899 23.954576-25.63802 25.95999c-10.799797 10.459429-17.211602 16.190497-26.990294 22.602301l24.626114 24.616915c6.742974-9.438324 12.483241-15.850129 23.283038-26.640727l16.530865-16.530865 15.51896 89.378902c3.035718 16.862035 4.047624 25.628821 4.719162 33.383701l25.647219-25.628821c-3.376087-6.742974-5.399899-13.154779-8.775986-31.700257l-25.297651-111.972004 111.337263 25.969189c17.211602 3.376087 24.966482 5.3907 31.709457 8.766786l25.647219-25.628821c-6.752173-0.340368-18.223508-1.692643-33.742468-4.387993l-89.066131-15.850128 16.530865-16.521666c10.790598-10.790598 17.542771-16.530865 26.990294-23.27384l-24.635312-24.616914c-6.742974 9.438324-12.823609 16.521666-23.283039 26.971896l-25.297651 25.63802-24.626114-5.740267-11.811703-11.793306 35.085542-35.076343c10.459429-10.459429 17.211602-16.190497 26.659125-22.602302l-24.635313-24.616914c-6.742974 9.447523-12.81441 16.190497-22.93347 26.640726l-35.094742 34.745175-22.271133-22.261934c-11.471335-11.130967-16.862035-17.542771-23.614207-27.321463z"  horiz-adv-x="1024" />

    
    <glyph glyph-name="membership-center_services-withholding-agreement" unicode="&#58926;" d="M138.313587 893.414269h739.887054c76.237647 0 138.028329-61.799884 138.028328-138.028328v-739.887054c0-76.237647-61.790682-138.028329-138.028328-138.028328H138.313587c-76.228445 0-138.028329 61.790682-138.028328 138.028328V755.385941c0 76.228445 61.799884 138.028329 138.028328 138.028328zM850.245303 139.972834a14.621801 14.621801 0 0 0-6.220477-9.330715l-91.301138-60.493215a29.501255 29.501255 0 0 0-27.91853-2.567327l-58.027109 24.799089-38.68474-17.998894a4.886203 4.886203 0 0 0-4.784982 0.358874 5.153058 5.153058 0 0 0-2.300472 4.315686v41.169249l44.408314 29.225198h115.667739c6.809398 0 12.330531-5.659161 12.330531-12.634193 0-6.96583-5.521133-12.624991-12.330531-12.624991h-36.430276a3.680755 3.680755 0 0 1-3.202258-1.886387 3.864793 3.864793 0 0 1 0-3.791178 3.680755 3.680755 0 0 1 3.202258-1.886387h45.07085c4.223667 0 7.987239 2.696153 9.431936 6.754186l4.757376 13.388748L828.169972 154.677452a13.821237 13.821237 0 0 0 10.710999 2.512116c3.754371-0.690142 7.076252-2.898595 9.21109-6.13766 2.14404-3.239065 2.916999-7.241886 2.153242-11.079074z m-50.932453 25.001531a12.42255 12.42255 0 0 1-9.661983 4.665358H679.587077a93.270343 93.270343 0 0 0-27.835713 66.768903c0 51.052078 40.414695 92.442173 90.261326 92.442173 49.84663 0 90.252123-41.390095 90.252123-92.442173 0-28.783507-12.836635-54.47518-32.951963-71.434261z m-22.204157 58.744857h-25.065945v10.27851h25.065945v10.269307h-18.974295l15.367154 20.888287 0.414085 0.616527a7.830807 7.830807 0 0 1-1.886387 10.177289 7.40752 7.40752 0 0 1-10.076068-0.947795l-0.460094-0.570517-15.873258-21.578429-0.450893-0.680939a7.738788 7.738788 0 0 1-0.653334-1.435495 8.051653 8.051653 0 0 1-0.644132 1.435495l-0.450892 0.680939-15.873258 21.569227a7.40752 7.40752 0 0 1-10.223299 1.70235 7.821605 7.821605 0 0 1-2.199251-10.352125l0.404883-0.616527 15.367154-20.888287h-18.974294v-10.269307h25.075146v-10.27851h-25.075146v-10.269308h25.075146v-20.547817h15.045088v20.547817h25.065945v10.269308z m-32.59309 21.983312l0.285259-0.736151 0.368075-0.708546h-1.288264a7.251088 7.251088 0 0 1 0.63493 1.444697z m-11.005458 108.922755c-60.161948-1.297466-108.55468-51.659402-108.55468-113.588113-0.036808-31.001163 12.330531-60.649648 34.212622-82.062442l-10.444144-4.499723-54.576401-35.914972v-6.248082H315.753605c-15.670816 0-28.387826 13.361142-28.387826 29.850927V631.638943c0 16.489784 12.71701 29.850927 28.387826 29.850926H705.416779c15.680018 0 28.397028-13.361142 28.397028-29.850926v-156.560932a37.240043 37.240043 0 0 1-0.938593-1.16864l0.634931-119.284082zM349.138057 223.305137c1.490706-1.527514 4.48132-1.527514 5.972025-1.527513 4.48132 0 7.471934 1.527514 10.462548 4.591742 19.415985 35.188022 40.331878 65.793503 52.28513 76.504502 1.490706-10.710998 2.990614-19.894483 2.990614-29.068766 0-18.36697 1.490706-32.142197 13.44396-36.724738 11.944051-4.591742 22.406599 7.646769 28.387826 13.766026l20.704249 35.822952c5.972026 7.646769 7.674375-17.455983 6.183669-23.575239-1.490706-6.128458-2.990614-15.302741 4.48132-21.431198 8.962639-7.646769 19.415985-3.055027 38.841172 6.128458 5.981228 3.055027 8.962639 10.710998 5.972025 16.830254-2.981412 6.119256-10.453345 9.183485-16.425371 6.119256-1.490706-1.527514-4.490522-1.527514-5.981227-3.064229 0 6.128458 0 12.247714-1.490706 19.894483 0 4.591742-4.48132 25.838903-16.434573 28.89393-13.443959 3.064229-25.397212-16.655418-43.322492-38.077415l-8.971841-10.710998v7.655971c-1.490706 10.710998-1.490706 24.477024-4.472118 36.724737-2.990614 15.302741-11.953253 18.357768-16.443775 19.894484-7.462732 1.527514-28.378624 4.582541-80.663755-91.816445-2.990614-6.119256-1.499908-13.766025 4.48132-16.830254z m15.900863 189.402473h172.158134c12.091282 0 21.882091 10.03926 21.882091 22.4158s-9.790809 22.415801-21.882091 22.415801H365.03892c-12.08208 0-21.882091-10.03926-21.882091-22.415801s9.800011-22.415801 21.882091-22.4158z m223.219413 135.985509H365.03892c-12.08208 0-21.882091-10.030059-21.882091-22.4158 0-12.37654 9.800011-22.415801 21.882091-22.415801h223.219413c12.091282 0 21.891293 10.03926 21.891293 22.415801 0 12.385742-9.800011 22.415801-21.891293 22.4158z"  horiz-adv-x="1024" />

    
    <glyph glyph-name="membership-center_services-address-management" unicode="&#58927;" d="M138.537242 892.83638h739.468668c76.184393 0 137.948562-61.754973 137.948562-137.948562V15.428346c0-76.184393-61.764169-137.948562-137.948562-137.948562H138.537242c-76.184393 0-137.948562 61.764169-137.948563 137.948562V754.887818c0 76.193589 61.764169 137.948562 137.948563 137.948562zM779.023218 237.93018a27.48855 27.48855 0 0 1 0-51.611156c4.441944-1.655383 6.41001-6.833052 4.064885-11.081867l-16.802135-29.189916a7.679137 7.679137 0 0 0-11.523303-1.968066 27.286226 27.286226 0 0 1-17.482681 6.336437 27.341405 27.341405 0 0 1-27.037919-32.270767 7.633154 7.633154 0 0 0-7.513598-8.865494l-34.054902-0.05518c-4.671858 0-8.368879 4.248816-7.504401 8.865495 0.303487 1.784135 0.487418 3.632645 0.432238 5.536335a27.571319 27.571319 0 0 1-27.525336 26.789611c-6.649121 0-12.810823-2.400305-17.556254-6.400813a7.587171 7.587171 0 0 0-11.514106 1.968066l-16.875708 29.318668a7.587171 7.587171 0 0 0 4.064885 10.953115 27.479354 27.479354 0 0 1 0 51.611156 7.587171 7.587171 0 0 0-4.064885 10.962312l16.875708 29.309471a7.587171 7.587171 0 0 0 11.514106 1.977263 27.387388 27.387388 0 0 1 17.556254-6.41001 27.571319 27.571319 0 0 1 27.525336 26.789611 28.417404 28.417404 0 0 1-0.432238 5.536336c-0.864478 4.625875 2.832544 8.874691 7.504401 8.87469l34.054902-0.064376a7.633154 7.633154 0 0 0 7.513598-8.87469 27.341405 27.341405 0 0 1 27.037919-32.261571c6.649121 0 12.746447 2.400305 17.482681 6.345634a7.605564 7.605564 0 0 0 11.523303-1.977263l16.802135-29.189915a7.577974 7.577974 0 0 0-4.064885-10.953116z m-93.473945 5.600711a31.369503 31.369503 0 0 1-31.341914-31.406289 31.369503 31.369503 0 0 1 31.341914-31.406289 31.360306 31.360306 0 0 1 31.341913 31.406289 31.360306 31.360306 0 0 1-31.341913 31.406289z m-34.910183 92.618665a8.718349 8.718349 0 0 1-8.681563-10.226587 31.856921 31.856921 0 0 0-31.341913-37.43924 31.728169 31.728169 0 0 0-20.260046 7.449223 8.828708 8.828708 0 0 1-13.307438-2.28075l-19.515123-33.861773a8.801118 8.801118 0 0 1 4.671858-12.682072 32.004066 32.004066 0 0 0 18.356355-17.556253L460.352844 109.279351 299.21053 270.504434c-89.16995 89.16995-89.16995 233.758437 0 322.928387l0.855281 0.864477c88.986019 88.976823 233.326198 88.976823 322.247841 0 69.829562-69.838759 84.976314-173.658846 45.440256-258.212118l-17.114818 0.064376zM460.785082 533.581538c-53.386094 0-96.674352-43.297455-96.674352-96.683549 0-53.39529 43.288259-96.692745 96.674352-96.692745 53.39529 0 96.683549 43.297455 96.683549 96.692745 0 53.386094-43.288259 96.683549-96.683549 96.683549z"  horiz-adv-x="1024" />

    
    <glyph glyph-name="membership-center_services-contact-customer-service" unicode="&#58928;" d="M145.2978 888.583114h733.071482c75.525317 0 136.755161-61.229844 136.755161-136.755161v-733.071482c0-75.525317-61.229844-136.755161-136.755161-136.755161H145.2978c-75.525317 0-136.755161 61.229844-136.755161 136.755161V751.827953c0 75.525317 61.229844 136.755161 136.755161 136.755161zM514.564086 227.38102800000001h7.950033a67.930847 67.930847 0 0 1 56.096967 47.162296 3.756208 3.756208 0 0 1-1.941923 4.321464 3.71974 3.71974 0 0 1-4.594973-1.021106c-1.103158-1.394903-10.758073-16.984991-51.429058-22.637537-5.7346-0.856999-11.514785-1.331084-17.304086-1.413137-27.578957 0-40.206017 10.840126-40.670985 10.840126a3.71974 3.71974 0 0 1-4.686144-0.082053 3.81091 3.81091 0 0 1-0.929935-4.631442c12.162092-20.276232 34.134088-33.003579 57.510104-33.003579v0.464968z m216.465186 251.811836h-0.929935c-23.512771 104.745336-115.603696 179.249548-222.081265 179.668931-109.650288-0.829648-203.345807-79.901482-223.476167-188.621835-20.367402-3.674155-35.16431-21.579964-35.07314-42.439685v-84.87937c0-24.059791 18.708106-43.387854 42.084121-43.387854a41.947366 41.947366 0 0 1 32.730069 16.036822c18.698989-50.462654 57.965954-90.550151 106.122005-112.239519l1.878104 3.774442c0.464968 0.939052 1.394903 1.887221 2.333955 1.887221a193.390032 193.390032 0 0 0-58.914124 111.29135c-3.108901 26.038183 13.547878 50.335016 38.811115 56.589286 37.397978 7.065683 73.866021 15.088653 110.808149 21.689368a63.664086 63.664086 0 0 1 49.085985 38.665243c4.029719 9.609329 6.555131 19.79303 7.485066 30.186423a4.677027 4.677027 0 0 0 4.202942 3.765325 4.649675 4.649675 0 0 0 3.273007-1.887221l1.40402 0.948169a265.870267 265.870267 0 0 0 47.691083-117.892066c4.677027-57.06337 1.868987-96.202697-41.14507-135.816109a3.327709 3.327709 0 0 1 0.464968-5.652547l0.939052-0.948169h1.868987l1.868987 1.413137a198.623196 198.623196 0 0 1 92.574127 113.178571c6.081046-9.426989 15.89095-16.027705 27.11399-18.38901-18.234021-83.466233-92.100042-135.806992-183.735117-143.829962a37.397978 37.397978 0 0 1-35.07314 23.57659c-20.467689 0.009117-37.142702-16.602077-37.397978-37.252106 0.510553-20.458572 17.103512-36.787138 37.397978-36.778021a37.443563 37.443563 0 0 1 35.538108 25.937895c106.131122 8.487937 191.685151 72.142906 208.989237 171.171877a43.880173 43.880173 0 0 1 26.649022 40.087496v86.292507c0 24.223898-19.464818 43.852822-43.488141 43.852821z m-39.266965-24.989726c-28.809754 76.883752-101.700255 127.838725-183.188097 128.039299-81.487842 0.209691-154.633619-50.362367-183.826288-127.09113l-5.141994 4.713495C335.086613 552.730673 414.650765 620.834743 508.018072 621.1356049999999c93.978147 0 172.056227-68.842548 188.421261-160.322634a42.877301 42.877301 0 0 1-4.677026-6.609833z"  horiz-adv-x="1032" />

    
    <glyph glyph-name="membership-center_services-account-settings" unicode="&#58929;" d="M145.586907 888.434862h733.049086c75.523949 0 136.752684-61.219618 136.752684-136.752684v-732.766463c0-75.523949-61.228735-136.752684-136.752684-136.752684H145.586907c-75.533066 0-136.752684 61.228735-136.752684 136.752684V751.682178c0 75.533066 61.219618 136.752684 136.752684 136.752684zM738.327739 379.851631c0 31.352832 19.68327 57.91932 47.261728 68.503978a274.845544 274.845544 0 0 1-30.040006 72.570091c-27.040564-12.025119-59.706222-7.120256-81.841923 15.079262-22.135701 22.135701-27.040564 54.865177-15.015445 81.85104a276.131019 276.131019 0 0 1-72.633908 30.030889c-10.648476-27.578458-37.214964-47.261727-68.503978-47.261727-31.352832 0-57.91932 19.68327-68.503978 47.261727a274.818193 274.818193 0 0 1-72.570091-30.030889c12.016002-27.040564 7.11114-59.715339-15.024561-81.85104s-54.865177-27.040564-81.841923-15.079262a272.858071 272.858071 0 0 1-30.094707-72.570091c27.578458-10.648476 47.261727-37.214964 47.261727-68.503978 0-31.343715-19.68327-57.910203-47.261727-68.503977a274.818193 274.818193 0 0 1 30.030889-72.570091c27.040564 12.025119 59.715339 7.120256 81.85104-15.079263 22.135701-22.135701 27.040564-54.865177 15.015444-81.851039a276.431875 276.431875 0 0 1 72.633909-30.03089c10.648476 27.578458 37.205847 47.261727 68.503978 47.261728 31.352832 0 57.910203-19.68327 68.503978-47.261728a275.128166 275.128166 0 0 1 72.57009 30.03089c-12.025119 27.049681-7.120256 59.715339 15.015445 81.851039s54.865177 27.040564 81.85104 15.079263a273.158927 273.158927 0 0 1 30.094707 72.570091c-27.578458 10.593775-47.261727 37.160263-47.261728 68.503977z m-220.773532-73.591177a73.618528 73.618528 0 0 0-73.591178 73.591177 73.618528 73.618528 0 0 0 73.591178 73.591178 73.618528 73.618528 0 0 0 73.591177-73.591178 73.618528 73.618528 0 0 0-73.591177-73.591177z"  horiz-adv-x="1033" />

    
    <glyph glyph-name="membership-center_services-bidding" unicode="&#58930;" d="M143.778104 893.409668H883.372673c76.2277 0 138.02698-61.79928 138.02698-138.026981v-739.594568c0-76.2277-61.79928-138.02698-138.02698-138.02698H143.778104c-76.2277 0-138.02698 61.79928-138.02698 138.02698V755.382687c0 76.2277 61.79928 138.02698 138.02698 138.026981zM726.978903 201.323986a6.404452 6.404452 0 0 0-4.278837 6.211214v9.947144a16.968117 16.968117 0 0 1-16.995722 16.949713H366.369614c-9.385835 0-16.995722-7.582282-16.995722-16.949713v-7.379842a6.441259 6.441259 0 0 0-5.465868-6.376847 61.909701 61.909701 0 0 1-52.431849-61.072338h478.217477a61.909701 61.909701 0 0 1-42.714749 58.670669zM359.431458 337.805064c2.272844-2.190028 5.327841-3.37706 8.49326-3.312648 4.959769 0 9.41344 3.01819 11.2538 7.609888a12.054356 12.054356 0 0 1-2.898567 13.241388l-72.234119 68.19453a12.054356 12.054356 0 0 1-16.995722-0.285256l-0.138027-0.147229a11.962338 11.962338 0 0 1 0.340466-16.949713l72.178909-68.35096z m13.416223-41.122839a12.17398 12.17398 0 0 1-13.959129 10.011557l-89.395474-14.695272a12.137172 12.137172 0 1 1 3.965975-23.933879l89.505896 14.722878a12.109567 12.109567 0 0 1 9.882732 13.894716z m406.673492 0l-181.284636 168.392916 65.148735 64.992304a15.339398 15.339398 0 0 1 21.697841 0l0.653328 0.588915a15.3486 15.3486 0 0 1 0 21.670236L569.60054 668.186443a15.403811 15.403811 0 0 1-21.753052 0l-0.625723-0.588915a15.256582 15.256582 0 0 1 0-21.624227l-162.135692-162.080482a15.431416 15.431416 0 0 1-21.725447 0l-0.56131-0.598117a15.274986 15.274986 0 0 1 0-21.697841l116.135901-115.850645c6.017976-5.971967 15.735076-5.971967 21.753053 0l0.588915 0.644126a15.311793 15.311793 0 0 1 0 21.64263l65.148734 65.001506 168.77019-180.852151a31.405739 31.405739 0 0 1 44.380275-1.610315 31.322923 31.322923 0 0 1 0.883372 45.125621l-0.938583 0.984592zM430.524555 470.329368a6.413654 6.413654 0 0 0-9.008561 0l-0.285256 0.285256a6.376846 6.376846 0 0 0 0 8.980955l130.297469 129.984608a6.413654 6.413654 0 0 0 9.036167 0l0.202439-0.230044a6.349241 6.349241 0 0 0 0-8.980956L430.524555 470.329368z"  horiz-adv-x="1029" />

    
    <glyph glyph-name="membership-center_wallet-coupon" unicode="&#58912;" d="M144.650226 888.022531h732.64542c75.48236 0 136.677379-61.195018 136.677378-136.677378v-732.645421c0-75.48236-61.195018-136.677379-136.677378-136.677378H144.650226c-75.48236 0-136.677379 61.195018-136.677379 136.677378V751.345153c0 75.48236 61.195018 136.677379 136.677379 136.677378zM760.573165 374.115588c0-57.349828 43.700314-104.703984 100.312084-111.601636V204.407843c0-39.244631-32.028066-70.844441-71.819407-70.844442H243.932673c-39.791341 0-71.819407 31.59981-71.819406 70.844442v58.106109c56.229074 6.897652 100.312084 54.251807 100.312084 111.601636 0 57.35894-43.700314 104.703984-100.312084 111.601635v58.115222c0 39.244631 32.028066 70.835329 71.819406 70.835329h545.215175c39.782229 0 71.819407-31.590698 71.819407-70.835329v-58.115222c-56.61177-6.897652-100.39409-54.242696-100.39409-111.601635zM373.129244 572.388905h-28.492678v-56.593547h28.492678v56.593547z m0-85.077112h-28.492678v-56.593547h28.492678v56.593547z m0-84.703528h-28.492678v-56.602658h28.492678v56.602658z m0-85.086224h-28.492678v-56.593546h28.492678v56.593546z m0-85.086224h-28.492678v-56.520652h28.492678v56.520652z m346.960081 157.060532v28.638466H571.156541c4.14588 7.426138 8.063965 15.22586 11.82715 23.408279h119.975403v28.037087h-41.240121c8.364656 11.061756 15.663228 23.645186 21.886604 37.577167l-27.189687 9.849883c-5.84068-15.22586-13.521949-28.784256-23.125812-40.6843l11.836261-6.74275h-51.545596a322.74085 322.74085 0 0 1 10.906855 43.718537l-31.873164 4.009203c-2.232397-15.599445-6.150482-31.508692-11.526459-47.72774h-37.78674l14.670039 6.74275c-6.833869 15.152965-13.904645 28.337776-21.203217 39.399533l-28.109981-9.239391c7.298572-10.688171 14.132441-23.034694 20.583613-36.975787h-43.089822v-28.037086h83.108958a310.649458 310.649458 0 0 0-13.749744-23.408279h-85.878953v-28.638467h61.841958c-19.207728-18.943485-43.016927-34.251351-71.518716-45.914487l18.132532-27.426594a309.984295 309.984295 0 0 1 29.030275 15.991253v-15.690563h58.069663a86.26165 86.26165 0 0 0-11.216657-16.282832c-15.818129-17.430922-41.167226-30.761522-75.883281-40.010024l12.820338-29.239848c42.023738 11.890932 71.518716 28.182875 88.339146 48.939614 8.519557 10.679059 15.590333 22.879793 21.203217 36.675096h68.356913c-0.610492-27.964192-2.451081-43.563636-5.603772-46.82567-3.617395-3.489829-9.294062-5.457983-17.212238-5.831568h-34.023556l9.066266-29.850339h19.125722c8.13686 0.455591 16.200825 1.366774 24.346797 2.79733 8.911365 1.89526 15.590333 4.628807 19.973121 8.33732 10.369257 9.239391 15.97303 39.08973 16.820429 89.623913a254.092359 254.092359 0 0 1 27.809291-17.576711l21.276112 26.141827c-31.417573 13.3306-54.689175 28.793368-69.896812 46.215178h59.600449z m-126.973285-16.966219l-30.870864 3.107132c-1.002301-9.020707-2.997791-19.244175-5.913574-30.761522h-50.853097c18.12342 13.713297 33.567964 28.638467 46.242513 44.620609h74.270488c10.451264-16.209937 24.355909-31.062212 41.868837-44.702615h-79.117979c1.457892 6.369166 2.915784 15.608557 4.373676 27.736396z"  horiz-adv-x="1032" />

    
    <glyph glyph-name="membership-center_wallet-recharge" unicode="&#58913;" d="M144.370374 888.03163H877.029067c75.483728 0 136.679855-61.196127 136.679854-136.679854v-732.658693c0-75.483728-61.196127-136.679855-136.679854-136.679854H144.370374c-75.49284 0-136.679855 61.196127-136.679854 136.679854V751.351776c0 75.483728 61.187015 136.679855 136.679854 136.679854zM764.933362 384.603278v0.082008h-0.774519c-0.164016 0-0.419152 0.09112-0.59228 0.09112-0.173128 0-0.428264-0.09112-0.601391-0.09112h-64.148412V586.133168c0 29.039913-21.950785 50.425754-50.990697 50.425754H384.753791c-29.039913 0-50.990698-21.476961-50.990698-50.425754v-201.447882h-65.424091c-4.701787 0-7.854536-1.184559-7.854535-1.184559a31.327023 31.327023 0 0 1-23.062448-30.133352c0-7.982104 2.988733-15.10768 7.854536-20.629546l221.81318-193.037514a78.855164 78.855164 0 0 1 49.113628-17.157878 78.527132 78.527132 0 0 1 49.450771 17.403901L787.649554 333.156981c4.519547 5.521866 7.426272 12.392307 7.426272 20.128386 0 16.884518-13.41285 30.552503-30.142464 31.317911z m-167.24147-77.843733h-52.867768v-34.042396c0-16.301351-12.219179-28.356514-28.529641-28.356514-16.310463 0-28.529642 12.055163-28.529642 28.356514v34.042396h-51.418961c-13.066594 0-20.757114 10.779485-20.757114 23.85519 0 13.075706 7.69052 21.476961 20.757114 21.476962h51.418961V380.44821h-51.418961c-13.066594 0-20.757114 10.096085-20.757114 23.171792 0 12.984586 7.69052 22.242368 20.757114 22.242368h49.715019l-52.020353 51.865449a23.718511 23.718511 0 0 0 0 33.614132 23.964534 23.964534 0 0 0 33.7417 0l48.083973-47.874397 48.257101 48.129533a23.891639 23.891639 0 0 0 33.7417 0.09112 23.727623 23.727623 0 0 0 0-33.623244l-52.102361-52.038577h50.389307c13.066594 0 20.757114-9.166662 20.757113-22.233256 0-13.075706-7.69052-23.180903-20.757113-23.180904l-51.327842-0.173128v-28.347401h49.961043c13.075706 0 22.215032-6.624417 22.215032-23.600055 0-12.984586-6.241713-21.732097-19.308307-21.732097z"  horiz-adv-x="1031" />

    
    <glyph glyph-name="membership-center_wallet-balance" unicode="&#58914;" d="M143.472404 887.746921h732.447117c75.46193 0 136.640384-61.178455 136.640384-136.640385v-732.447117c0-75.471039-61.178455-136.640384-136.640384-136.640384H143.472404c-75.46193 0-136.640384 61.169345-136.640385 136.640384V751.106536c0 75.46193 61.178455 136.640384 136.640385 136.640385zM702.604857 144.359464H317.005692a36.974888 36.974888 0 0 0-25.979892 10.65795 36.10039 36.10039 0 0 0-10.776371 25.661064v286.853714c0 20.077027 16.47883 36.309905 36.756263 36.309905h385.599165c20.268324 0 36.756263-16.232878 36.756263-36.309905v-286.853714c0-20.077027-16.48794-36.319014-36.756263-36.319014zM571.594056 335.728877c3.370463 0 6.695379 1.329966 9.027375 3.743946 2.386652 2.404871 3.680181 5.68424 3.570869 9.118469a11.441355 11.441355 0 0 1-3.261151 9.273327 11.905932 11.905932 0 0 1-8.398829 3.479775c-0.255062 0-0.57389-0.054656-0.938264-0.054656h-34.469814l42.303863 40.882803a11.477792 11.477792 0 0 1 4.090102 8.754094c0 3.379572-1.503044 6.558738-4.090102 8.763203a12.406947 12.406947 0 0 1-7.834049 2.814792c-0.355265 0-0.774296 0-1.138669-0.054656a12.416056 12.416056 0 0 1-8.344173-4.39982l-53.189547-51.941565-51.476988 51.987112a14.338131 14.338131 0 0 1-10.421106 4.509132 13.937319 13.937319 0 0 1-8.499032-2.760135 13.654929 13.654929 0 0 1-3.324916-9.992967c0.309718-3.68929 2.076934-7.014206 4.982819-9.373531l40.536647-40.828147h-34.424267c-3.370463 0-6.686269-1.329966-9.018266-3.734837a12.406947 12.406947 0 0 1-3.579978-9.118468c-0.355265-3.434228 0.828952-6.813801 3.27026-9.273327 2.177137-2.204465 5.237881-3.479775 8.398829-3.479776 0.255062 0 0.56478 0.045547 0.929155 0.045547h51.741159v-23.921176h-51.741159c-3.370463 0-6.686269-1.329966-9.018266-3.734838a12.388728 12.388728 0 0 1-3.579978-9.118468c-0.355265-3.434228 0.828952-6.813801 3.27026-9.273327 2.177137-2.204465 5.237881-3.479775 8.398829-3.479776 0.255062 0 0.56478 0.054656 0.929155 0.054657h51.741159v-46.102466a12.388728 12.388728 0 0 1 6.167036-11.113418 12.680228 12.680228 0 0 1 12.853305 0 12.388728 12.388728 0 0 1 6.176146 11.113418v46.047809h50.074146c3.370463 0 6.631613 1.329966 9.018265 3.743947 2.386652 2.450418 3.634634 5.729787 3.579978 9.109359a11.432246 11.432246 0 0 1-3.26115 9.273327 11.869495 11.869495 0 0 1-8.407939 3.479776c-0.255062 0-0.56478-0.045547-0.929154-0.045547h-50.074146v25.606408h48.361586z m21.671165 297.766726c19.339169 7.779393 41.420255-1.384623 49.299851-20.541605l33.695519-81.756497H341.47343l251.791791 102.298102z"  horiz-adv-x="1030" />

    
    <glyph glyph-name="membership-center_settings" unicode="&#58915;" d="M1002.705836 483.126557c-41.564328-15.981115-68.440131-54.893115-68.440131-99.126557a105.623082 105.623082 0 0 1 68.440131-99.126557l21.252197-8.192-5.640394-22.057968a514.081574 514.081574 0 0 0-56.823606-137.165639l-11.616525-19.556721-20.798951 9.216a106.932459 106.932459 0 0 1-118.515409-21.77259 105.589508 105.589508 0 0 1-21.655082-118.46505l9.26636-20.849311-19.623869-11.666885a520.813115 520.813115 0 0 0-137.165639-56.722886L619.326951-128l-8.192 21.302557c-15.981115 41.564328-54.893115 68.456918-99.126558 68.456918a105.925246 105.925246 0 0 1-99.176918-68.507278L404.639475-128l-22.057967 5.640393a522.542164 522.542164 0 0 0-137.216 56.722886l-19.674229 11.666885 9.333508 20.849311c18.113049 40.657836 9.618885 87.191082-21.72223 118.46505a104.901246 104.901246 0 0 1-74.80236 31.03895 105.74059 105.74059 0 0 1-43.612328-9.26636l-20.849312-9.266361-11.666885 19.607082a521.098492 521.098492 0 0 0-56.739672 137.165639L0.008393 276.681443l21.302558 8.192c41.581115 15.981115 68.456918 54.893115 68.456918 99.126557a105.858098 105.858098 0 0 1-68.507279 99.176918l-21.201836 8.192 5.640394 22.007607a516.280656 516.280656 0 0 0 56.823606 137.165639l11.666885 19.573508 20.748591-9.232787a106.76459 106.76459 0 0 1 118.515409 21.77259 105.623082 105.623082 0 0 1 21.671869 118.46505l-9.216 20.849311 19.607082 11.616525A520.141639 520.141639 0 0 0 382.631869 890.376393L404.689836 896l8.192-21.28577A105.656656 105.656656 0 0 1 512.008393 806.240525a105.874885 105.874885 0 0 1 99.176918 68.507278L619.377311 896l22.007607-5.623607a522.357508 522.357508 0 0 0 137.216-56.739672l19.657443-11.616524-9.249574-20.899672a105.472 105.472 0 0 1 21.655082-118.46505 105.018754 105.018754 0 0 1 74.852721-31.03895 106.059541 106.059541 0 0 1 43.612328 9.26636l20.849312 9.283148 11.616524-19.623869a519.453377 519.453377 0 0 0 56.790033-137.165639L1024.008393 491.318557l-21.302557-8.192z m-68.859803 29.024525a435.048918 435.048918 0 0 1-32.935869 79.536262 147.590295 147.590295 0 0 0-143.527869 37.736918 148.244984 148.244984 0 0 0-37.585836 143.477508 440.034623 440.034623 0 0 1-79.687344 32.935869A146.21377 146.21377 0 0 0 512.008393 730.951344a146.096262 146.096262 0 0 0-128.151082 74.886295 437.46623 437.46623 0 0 1-79.485901-32.885508 146.146623 146.146623 0 0 0-37.686558-143.527869 146.045902 146.045902 0 0 0-104.011541-43.041573 146.348066 146.348066 0 0 0-39.465967 5.355016 434.914623 434.914623 0 0 1-33.03659-79.636984A146.21377 146.21377 0 0 0 165.057049 384a146.180197 146.180197 0 0 0-74.886295-128.151082 438.423082 438.423082 0 0 1 32.885508-79.536262 147.590295 147.590295 0 0 0 143.527869-37.736918 148.244984 148.244984 0 0 0 37.636197-143.460722 438.406295 438.406295 0 0 1 79.687344-32.952655A146.180197 146.180197 0 0 0 512.008393 37.015082a146.146623 146.146623 0 0 0 128.151082-74.852721 437.51659 437.51659 0 0 1 79.485902 32.902295 146.16341 146.16341 0 0 0 37.686557 143.511082 146.045902 146.045902 0 0 0 104.011541 43.05836c13.345574 0 26.624-1.812984 39.465968-5.355016a434.780328 434.780328 0 0 1 33.03659 79.569836A146.096262 146.096262 0 0 0 858.993311 384a146.113049 146.113049 0 0 0 74.852722 128.151082zM512.008393 230.4c-84.689836 0-153.6 68.910164-153.6 153.6s68.910164 153.6 153.6 153.6 153.6-68.910164 153.6-153.6-68.910164-153.6-153.6-153.6z m0 248.630557a95.097705 95.097705 0 0 1-95.030557-95.030557 95.164852 95.164852 0 0 1 95.030557-95.030557 95.164852 95.164852 0 0 1 95.030558 95.030557 95.097705 95.097705 0 0 1-95.030558 95.030557z"  horiz-adv-x="1024" />

    
    <glyph glyph-name="membership-center_wallet-rebate" unicode="&#58916;" d="M143.674413 887.187202h732.037565c75.428839 0 136.563981-61.135142 136.563981-136.563981v-732.037565c0-75.419735-61.135142-136.563981-136.563981-136.563982H143.674413c-75.419735 0-136.563981 61.144247-136.563982 136.563982V750.623221c0 75.428839 61.144247 136.563981 136.563982 136.563981zM783.813523 550.138192l-54.971555 0.100147-0.109251-55.007971a20.775934 20.775934 0 0 0-20.866976-20.812351 21.212938 21.212938 0 0 0-20.803247 21.185625l0.109251 54.716636-55.554227 0.109251a20.757725 20.757725 0 0 0-20.794142 20.885185 20.757725 20.757725 0 0 0 20.87608 20.803246l55.554228-0.109251 0.100147 55.599749a20.757725 20.757725 0 0 0 20.87608 20.803246 20.757725 20.757725 0 0 0 20.794143-20.885185l-0.100147-55.590644 54.971554-0.109251a20.757725 20.757725 0 0 0 20.794143-20.885185 20.930706 20.930706 0 0 0-20.876081-20.803247zM661.306527 261.833419c-0.018209-10.533635-4.716009-16.387678-14.075194-17.534815l-132.266768 0.245815c-30.435559 0.06373-56.173318 8.312194-76.038825 25.919844-3.505142 3.541559-5.844938 4.706905-7.010284 4.706905-2.3489 0-7.037597-3.496038-15.24054-11.680773-3.523351-4.670488-5.872251-8.193839-7.046702-9.359184-7.028493-5.844938-14.056986-8.184735-22.24172-4.65228-11.698981 7.046701-11.680773 16.414991-1.119825 28.113972 1.17445 1.17445 4.688697 5.844938 11.726294 14.029673 10.560948 10.515427 16.424095 17.534815 16.424095 17.534815l0.127459 65.596232-3.505142 3.523351-17.553023 0.027313c-9.368289 0.018209-14.038777 7.055806-14.011465 18.772995 1.183555 10.533635 7.046701 16.387678 17.589441 17.534815l30.435559-0.054625c15.213228-0.036417 23.388858-8.248464 19.847299-25.810593l-0.145669-73.799175c-0.045521-26.939521 28.022929-39.876683 83.040005-39.97683l115.879091-0.218502c9.359185-0.018209 14.038777-4.706905 15.185914-12.918953zM431.086968 456.710221a648.369366 648.369366 0 0 1-40.914569 28.186805c-8.184735 5.872251-10.506322 12.909848-5.808521 22.269033 7.037597 7.010284 15.231436 8.17563 26.930417 4.634072 12.864327-7.055806 26.894-15.276957 38.574772-25.837906 8.184735-8.221152 9.331872-16.414991 4.634071-25.783279-8.212047-9.350081-15.231436-10.515427-23.41617-3.468725z m219.80428-138.657963c7.00118-10.542739 6.982972-19.911028-0.054626-28.104867-8.212047-7.019389-16.405886-7.00118-25.755967 1.219971-2.339796 2.3489-7.010284 5.872251-11.689877 9.395602-10.515427 10.551844-18.691057 17.598545-24.526891 23.470797-25.78328-21.039957-46.877863-35.042318-60.943952-39.712806-12.89164-4.643175-21.076374-2.276066-26.921313 4.752426-4.661384 9.377393-1.138033 16.405886 8.23936 23.416171 0 0 3.514246 1.165346 7.037597 4.670488 19.920133 11.680773 33.986223 22.205303 41.02382 29.206484-4.679592 4.706905-16.369469 12.918953-33.89518 25.837905-9.359185 7.046701-11.680773 14.075194-4.643175 23.425275 7.028493 5.854043 16.396782 7.00118 28.095763 3.468725a295.27864 295.27864 0 0 0 35.078734-23.498109 120.576891 120.576891 0 0 1 19.974759 38.620294c1.17445 3.505142 0 4.679592-3.505142 5.863147l-95.986271 0.182085c-0.091043-48.025-4.843469-84.323706-13.091933-112.419469-4.697801-10.524531-11.735398-16.378573-22.269034-15.185915-9.359185 3.532455-12.846119 11.735398-10.488113 23.443483a578.612485 578.612485 0 0 1 14.257279 110.079674l0.109251 56.218839c0.027313 16.396782 7.06491 24.581517 24.627038 24.554203 33.949806-0.06373 80.773043 2.185024 138.129915 5.590019 10.551844-0.027313 17.562128-4.716009 19.874612-14.093403-0.018209-11.71719-4.716009-18.727474-14.075195-19.883715-39.812953-3.432308-81.956597-4.533924-126.430933-4.442882-5.854043 0.009104-8.202943-1.156242-8.212048-7.010284l-0.027313-14.075194 110.034152-0.209399c25.755967 1.119825 35.096943-10.606469 28.032033-32.848189a249.866564 249.866564 0 0 0-29.397673-66.716057c18.709265-16.442303 31.555384-28.177701 37.400323-35.215299z m-124.582768 310.182323a21.759194 21.759194 0 0 0-10.897806-2.886052c-135.689972 0.236711-246.124711-109.852067-246.379631-245.633081-0.264024-135.799223 109.770128-246.315901 245.469204-246.579925 135.717285-0.254919 246.161128 109.842962 246.425153 245.642186a21.704569 21.704569 0 1 0 43.400033-0.081939l-0.009104-0.081938c-0.345962-159.488522-130.500541-289.206095-289.89802-288.905655-159.424792 0.309545-289.096844 130.56427-288.787299 290.089209 0.300441 159.534043 130.464123 289.288034 289.898019 288.978489a21.704569 21.704569 0 0 0 21.659048-21.759194 21.704569 21.704569 0 0 0-10.879597-18.7821z"  horiz-adv-x="1031" />

    
    <glyph glyph-name="membership-center_order-paid" unicode="&#58906;" d="M1126.085192 222.074095H685.253597c-41.780316 0-75.768805 33.36156-75.768805 74.358216V481.185944c0 40.996655 33.988489 74.34702 75.768805 74.34702h440.831595c41.769121 0 75.768805-33.350365 75.768805-74.34702v-184.753633c0-40.996655-33.999684-74.358216-75.768805-74.358216z m-6.896215 252.33878H692.138617v-171.229886h427.05036V474.412875z m-346.23254-56.983335a42.642343 42.642343 0 0 0 29.521622 12.001205 42.653538 42.653538 0 0 0 29.521622-12.001205 41.108607 41.108607 0 0 0 12.225109-28.760352v-0.212708a41.063826 41.063826 0 0 0-12.236304-28.749157 42.597563 42.597563 0 0 0-29.510427-11.99001 42.608758 42.608758 0 0 0-29.521622 11.99001 41.041436 41.041436 0 0 0-12.213914 28.749157h-0.011195v0.212708h0.011195a41.052631 41.052631 0 0 0 12.213914 28.760352z m302.638609 183.029579c-23.5658 0-42.631148 18.740688-42.631148 41.836292V765.285377c0 23.050823-19.110129 41.847487-42.653538 41.847487H134.149732c-23.509824 0-42.653538-18.796664-42.653539-41.847487v-756.490168c0-23.095604 19.143714-41.836292 42.653539-41.836292h852.242324c23.54341 0 42.642343 18.740688 42.642343 41.836292V138.177608c0 23.162774 19.054153 41.858682 42.642343 41.858682s42.653538-18.695908 42.653538-41.858682v-129.382399c0-69.197249-57.363971-125.542461-127.938224-125.542462H134.149732C63.609064-116.747253 6.211507-60.402041 6.211507 8.795209V765.285377C6.211507 834.505017 63.609064 890.816644 134.149732 890.816644h856.160628c70.540668 0 127.938225-56.311627 127.938224-125.531267v-122.989966c0-23.095604-19.065348-41.836292-42.653538-41.836292z"  horiz-adv-x="1215" />

    
    <glyph glyph-name="membership-center_order-express" unicode="&#58907;" d="M1071.68 7.104h-258.368c-22.72 0-39.264 18.624-39.264 41.344 0 22.72 18.624 41.344 39.264 41.344h219.104V776.096c0 22.72-18.592 41.344-39.264 41.344H348.288c-22.72 0-39.264-18.592-39.264-41.344 0-22.72-18.624-41.344-39.264-41.344H172.608c-22.72 0-39.264 18.624-39.264 41.344 0 22.72 16.512 39.296 39.264 39.296h62.016A120.608 120.608 0 0 0 348.288 896H991.04c66.144 0 119.872-53.76 119.872-121.952v-727.68c2.08-20.64-16.512-39.264-39.264-39.264z m-539.456 0H350.4c-66.144 0-119.904 53.76-119.904 121.984 0 22.72 18.624 41.344 39.296 41.344 20.64 0 39.264-18.624 39.264-41.344 0-22.752 18.592-41.344 39.264-41.344h181.888c22.72 0 39.264-18.624 39.264-41.344 0-22.752-16.544-39.296-37.216-39.296zM1520.864 18.272H1464.64c-22.88 0-39.52 18.88-39.52 41.92 0 23.04 18.72 41.856 39.52 41.856h56.192v255.488l-156.064 234.56h-249.664v-492.16h64.512c22.88 0 39.52-18.816 39.52-41.856 0-23.04-18.72-41.92-39.52-41.92h-106.112c-22.88 0-39.52 18.88-39.52 41.92V631.904c0 23.04 18.72 41.888 39.52 41.888h289.184c27.072 0 52.032-14.688 66.56-35.616l156.064-234.56c8.32-14.656 14.56-29.312 14.56-46.08v-257.6c2.08-43.968-35.36-81.664-79.04-81.664z m-848.896-144.48c-99.84 0-183.072 83.744-183.072 184.288 0 100.512 81.12 184.288 183.072 184.288s183.104-83.776 183.104-184.32c0-100.48-83.2-184.256-183.104-184.256z m0 286.912c-56.16 0-101.952-46.08-101.952-102.624s45.76-102.624 101.952-102.624 101.952 46.08 101.952 102.624c-2.08 56.544-45.76 102.624-101.952 102.624zM1322.88-126.208c-98.176 0-179.936 81.6-179.936 179.584a180.032 180.032 0 0 0 179.904 179.584c98.144 0 179.936-81.632 179.936-179.584s-81.792-179.584-179.936-179.584z m0 279.584a100.256 100.256 0 0 1-100.224-100 100.256 100.256 0 0 1 100.192-100 100.256 100.256 0 0 1 100.16 100 100.256 100.256 0 0 1-100.16 100zM406.848 592.16h-184c-22.496 0-38.88 18.368-38.88 40.8 0 22.464 18.4 40.832 38.848 40.832h184c22.528 0 38.88-18.368 38.88-40.832 0-22.432-18.4-40.8-38.848-40.8zM318.944 271.744h-184c-22.496 0-38.848 18.368-38.848 40.8 0 22.464 18.4 40.832 38.848 40.832h184c22.496 0 38.848-18.368 38.848-40.832 0-22.432-16.32-40.8-38.848-40.8z m261.728 175.488H38.848C16.352 447.232 0 465.6 0 488.064c0 22.464 18.4 40.8 38.848 40.8h541.824c22.496 0 38.848-18.336 38.848-40.8 2.048-22.464-16.352-40.832-38.848-40.832z m891.424-16.32h-239.2c-22.496 0-38.848 18.368-38.848 40.832 0 22.432 18.4 40.8 38.848 40.8h239.2c22.496 0 38.848-18.368 38.848-40.8 2.048-22.464-16.32-40.832-38.848-40.832z"  horiz-adv-x="1600" />

    
    </font>
</defs>
</svg>
